<svg xmlns="http://www.w3.org/2000/svg" viewBox="0 0 605 462"><defs><linearGradient x1="49.999%" y1="100.002%" x2="49.999%" y2="0%" id="a"><stop stop-color="gray" stop-opacity=".25" offset="0%"/><stop stop-color="gray" stop-opacity=".12" offset="54%"/><stop stop-color="gray" stop-opacity=".1" offset="100%"/></linearGradient><linearGradient x1="50%" y1="100%" x2="50%" y2="0%" id="b"><stop stop-color="gray" stop-opacity=".25" offset="0%"/><stop stop-color="gray" stop-opacity=".12" offset="54%"/><stop stop-color="gray" stop-opacity=".1" offset="100%"/></linearGradient><linearGradient x1="50%" y1="100%" x2="50%" y2="0%" id="c"><stop stop-color="gray" stop-opacity=".25" offset="0%"/><stop stop-color="gray" stop-opacity=".12" offset="54%"/><stop stop-color="gray" stop-opacity=".1" offset="100%"/></linearGradient><linearGradient x1="50.013%" y1="100%" x2="50.013%" y2=".223%" id="d"><stop stop-color="gray" stop-opacity=".25" offset="0%"/><stop stop-color="gray" stop-opacity=".12" offset="54%"/><stop stop-color="gray" stop-opacity=".1" offset="100%"/></linearGradient><linearGradient x1="49.96%" y1="99.961%" x2="49.96%" y2=".007%" id="e"><stop stop-color="gray" stop-opacity=".25" offset="0%"/><stop stop-color="gray" stop-opacity=".12" offset="54%"/><stop stop-color="gray" stop-opacity=".1" offset="100%"/></linearGradient><linearGradient x1="49.987%" y1="100%" x2="49.987%" y2="-.024%" id="f"><stop stop-color="gray" stop-opacity=".25" offset="0%"/><stop stop-color="gray" stop-opacity=".12" offset="54%"/><stop stop-color="gray" stop-opacity=".1" offset="100%"/></linearGradient><linearGradient x1="49.999%" y1="100.01%" x2="49.999%" y2="-.006%" id="g"><stop stop-color="gray" stop-opacity=".25" offset="0%"/><stop stop-color="gray" stop-opacity=".12" offset="54%"/><stop stop-color="gray" stop-opacity=".1" offset="100%"/></linearGradient><linearGradient x1="50%" y1="100%" x2="50%" y2=".009%" id="h"><stop stop-color="gray" stop-opacity=".25" offset="0%"/><stop stop-color="gray" stop-opacity=".12" offset="54%"/><stop stop-color="gray" stop-opacity=".1" offset="100%"/></linearGradient><linearGradient x1="50.02%" y1="100%" x2="50.02%" y2="-.007%" id="i"><stop stop-color="gray" stop-opacity=".25" offset="0%"/><stop stop-color="gray" stop-opacity=".12" offset="54%"/><stop stop-color="gray" stop-opacity=".1" offset="100%"/></linearGradient><linearGradient x1="50%" y1="100%" x2="50%" y2="0%" id="j"><stop stop-color="gray" stop-opacity=".25" offset="0%"/><stop stop-color="gray" stop-opacity=".12" offset="54%"/><stop stop-color="gray" stop-opacity=".1" offset="100%"/></linearGradient><linearGradient x1="49.996%" y1="100.019%" x2="49.996%" y2="0%" id="k"><stop stop-color="gray" stop-opacity=".25" offset="0%"/><stop stop-color="gray" stop-opacity=".12" offset="54%"/><stop stop-color="gray" stop-opacity=".1" offset="100%"/></linearGradient><linearGradient x1="49.999%" y1="100.029%" x2="49.999%" y2=".029%" id="l"><stop stop-color="gray" stop-opacity=".25" offset="0%"/><stop stop-color="gray" stop-opacity=".12" offset="54%"/><stop stop-color="gray" stop-opacity=".1" offset="100%"/></linearGradient><linearGradient x1="50.007%" y1="100.008%" x2="50.007%" y2="0%" id="m"><stop stop-color="gray" stop-opacity=".25" offset="0%"/><stop stop-color="gray" stop-opacity=".12" offset="54%"/><stop stop-color="gray" stop-opacity=".1" offset="100%"/></linearGradient><linearGradient x1="50.054%" y1="100.094%" x2="50.054%" y2=".087%" id="n"><stop stop-color="gray" stop-opacity=".25" offset="0%"/><stop stop-color="gray" stop-opacity=".12" offset="54%"/><stop stop-color="gray" stop-opacity=".1" offset="100%"/></linearGradient><linearGradient x1="49.992%" y1="100.005%" x2="49.992%" y2="0%" id="o"><stop stop-color="gray" stop-opacity=".25" offset="0%"/><stop stop-color="gray" stop-opacity=".12" offset="54%"/><stop stop-color="gray" stop-opacity=".1" offset="100%"/></linearGradient><linearGradient x1="49.983%" y1="99.99%" x2="49.983%" y2="-.011%" id="p"><stop stop-color="gray" stop-opacity=".25" offset="0%"/><stop stop-color="gray" stop-opacity=".12" offset="54%"/><stop stop-color="gray" stop-opacity=".1" offset="100%"/></linearGradient><linearGradient x1="49.986%" y1="100%" x2="49.986%" y2="-.031%" id="q"><stop stop-color="gray" stop-opacity=".25" offset="0%"/><stop stop-color="gray" stop-opacity=".12" offset="54%"/><stop stop-color="gray" stop-opacity=".1" offset="100%"/></linearGradient><linearGradient x1="50.027%" y1="99.975%" x2="50.027%" y2="-.006%" id="r"><stop stop-color="gray" stop-opacity=".25" offset="0%"/><stop stop-color="gray" stop-opacity=".12" offset="54%"/><stop stop-color="gray" stop-opacity=".1" offset="100%"/></linearGradient><linearGradient x1="50.022%" y1="100%" x2="50.022%" y2="0%" id="s"><stop stop-color="gray" stop-opacity=".25" offset="0%"/><stop stop-color="gray" stop-opacity=".12" offset="54%"/><stop stop-color="gray" stop-opacity=".1" offset="100%"/></linearGradient><linearGradient x1="50%" y1="100%" x2="50%" y2="0%" id="t"><stop stop-color="gray" stop-opacity=".25" offset="0%"/><stop stop-color="gray" stop-opacity=".12" offset="54%"/><stop stop-color="gray" stop-opacity=".1" offset="100%"/></linearGradient><linearGradient x1="50.006%" y1="100%" x2="50.006%" y2="0%" id="u"><stop stop-color="gray" stop-opacity=".25" offset="0%"/><stop stop-color="gray" stop-opacity=".12" offset="54%"/><stop stop-color="gray" stop-opacity=".1" offset="100%"/></linearGradient><linearGradient x1="50.006%" y1="100%" x2="50.006%" y2="-.019%" id="v"><stop stop-color="gray" stop-opacity=".25" offset="0%"/><stop stop-color="gray" stop-opacity=".12" offset="54%"/><stop stop-color="gray" stop-opacity=".1" offset="100%"/></linearGradient><linearGradient x1="49.984%" y1="100%" x2="49.984%" y2="-.019%" id="w"><stop stop-color="gray" stop-opacity=".25" offset="0%"/><stop stop-color="gray" stop-opacity=".12" offset="54%"/><stop stop-color="gray" stop-opacity=".1" offset="100%"/></linearGradient><linearGradient x1="50%" y1="100%" x2="50%" y2="0%" id="x"><stop stop-color="gray" stop-opacity=".25" offset="0%"/><stop stop-color="gray" stop-opacity=".12" offset="54%"/><stop stop-color="gray" stop-opacity=".1" offset="100%"/></linearGradient><linearGradient x1="49.994%" y1="100%" x2="49.994%" y2="0%" id="y"><stop stop-color="gray" stop-opacity=".25" offset="0%"/><stop stop-color="gray" stop-opacity=".12" offset="54%"/><stop stop-color="gray" stop-opacity=".1" offset="100%"/></linearGradient></defs><g fill="none" fill-rule="evenodd"><g fill="#304FFE" opacity=".1"><path d="M207.459 19.642C226.172 2.985 255.545-.429 282.285.897c83.982 4.177 159.79 44.717 225.365 90.58 23.742 16.6 47.113 34.492 62.52 57.357 31.392 46.542 22.064 111.016-21.551 149.359-14.844 13.043-32.833 23.063-51.302 31.91-32.84 15.76-68.274 28.412-105.546 32.032-26.574 2.562-53.48.48-79.907-3.1-73.821-10.033-146.271-32.174-207.023-70.048-26.638-16.612-51.745-37.266-62.725-64.129-10.98-26.862-3.953-60.944 23.249-76.876 11.25-6.58 24.703-9.552 37.868-12.346 19.386-4.106 39.079-8.155 56.568-16.502 18.073-8.623 39.464-25.3 35.876-44.39-3.818-20.456-6.906-38.445 11.782-55.102z"/><circle cx="115.309" cy="80.413" r="20.18"/><circle cx="73.027" cy="32.365" r="12.492"/><circle cx="7.688" cy="60.233" r="7.688"/></g><ellipse fill="#304FFE" opacity=".1" cx="46.989" cy="444.029" rx="20.616" ry="4.03"/><ellipse fill="#304FFE" opacity=".1" cx="584.352" cy="433.359" rx="20.616" ry="4.03"/><ellipse fill="#304FFE" opacity=".1" cx="537.98" cy="452.993" rx="20.616" ry="4.03"/><ellipse fill="#304FFE" opacity=".1" cx="301.709" cy="449.154" rx="76.159" ry="12.768"/><g transform="translate(71 344)"><path d="M60.93.888s4.638 6.067-2.14 15.215c-6.778 9.148-12.358 16.875-10.09 22.583 0 0 10.218-16.997 18.54-17.234 8.322-.237 2.844-10.34-6.31-20.564z" fill="#304FFE"/><path d="M60.93.888c.406.592.725 1.24.948 1.922 8.117 9.539 12.441 18.437 4.638 18.662-7.265.205-15.984 13.203-18.072 16.483.066.255.15.506.25.75 0 0 10.218-16.996 18.54-17.233 8.322-.237 2.85-10.36-6.304-20.584z" fill="#000" opacity=".1"/><path d="M69.546 8.614c0 2.133-.237 3.844-.531 3.844-.295 0-.539-1.73-.539-3.844s.302-1.128.596-1.128c.295 0 .474-1.03.474 1.128z" fill="#FFD037"/><path d="M72.506 11.164c-1.87 1.018-3.504 1.64-3.645 1.377-.141-.263 1.281-1.281 3.133-2.319 1.851-1.038 1.134-.275 1.28 0 .148.275 1.103-.083-.768.942z" fill="#FFD037"/><path d="M36.45.888s-4.637 6.067 2.14 15.215C45.37 25.251 50.95 32.978 48.7 38.686c0 0-10.25-16.997-18.579-17.234-8.328-.237-2.825-10.34 6.33-20.564z" fill="#304FFE"/><path d="M36.45.888a7.553 7.553 0 00-.947 1.922c-8.117 9.539-12.442 18.437-4.639 18.662 7.265.205 16.016 13.203 18.073 16.483a7.31 7.31 0 01-.244.75s-10.25-16.996-18.578-17.233c-8.328-.237-2.819-10.36 6.336-20.584z" fill="#000" opacity=".1"/><path d="M27.834 8.614c0 2.133.237 3.844.532 3.844.295 0 .538-1.73.538-3.844s-.301-1.128-.596-1.128c-.294 0-.474-1.03-.474 1.128z" fill="#FFD037"/><path d="M24.874 11.164c1.878 1.018 3.505 1.64 3.652 1.377.147-.263-1.281-1.281-3.139-2.319-1.858-1.038-1.134-.275-1.281 0-.148.275-1.102-.083.768.942z" fill="#FFD037"/><ellipse fill="#304FFE" opacity=".1" cx="48.687" cy="77.617" rx="48.464" ry="7.438"/><path d="M73.634 30.518l-.231 1.921-.327 2.672-.134 1.115-.327 2.678-.14 1.114-.328 2.672-3.703 30.392c-.333 2.716-4.766 4.83-10.122 4.83H39.09c-5.355 0-9.782-2.114-10.115-4.83l-3.71-30.399-.326-2.671-.135-1.115-.333-2.678-.135-1.114-.326-2.672-.231-1.922c-.186-1.537 2.21-2.832 5.24-2.832h39.413c2.991.007 5.394 1.301 5.202 2.839z" fill="#65617D"/><path fill="#9D9CB5" d="M73.397 32.407l-.32 2.678h-48.78l-.32-2.678zM72.935 36.2l-.32 2.671h-47.85L24.44 36.2zM72.474 39.986l-.327 2.672h-46.92l-.327-2.672z"/></g><g transform="translate(230 85)"><path fill="url(#a)" d="M123.737 136.671h195.864v218.606H123.737z"/><path fill="#ECEFF1" d="M126.975 282.625h189.392v67.893H126.975z"/><path fill="#304FFE" d="M142.518 298.731h7.338v34.786h-7.338z"/><path d="M157.007 298.73h7.338v34.787h-7.338z" opacity=".7" fill="#304FFE"/><path d="M171.496 298.73h7.338v34.787h-7.338z" opacity=".6" fill="#304FFE"/><path d="M185.985 298.73h7.338v34.787h-7.338zM200.474 298.73h7.338v34.787h-7.338z" opacity=".5" fill="#304FFE"/><path d="M214.963 298.73h7.338v34.787h-7.338z" opacity=".4" fill="#304FFE"/><path d="M229.448 298.73h7.338v34.787h-7.338z" opacity=".3" fill="#304FFE"/><circle fill="#304FFE" cx="289.549" cy="315.9" r="17.708"/><path fill="#ECEFF1" d="M126.975 212.09h189.392v67.893H126.975z"/><path fill="#304FFE" d="M142.518 228.196h7.338v34.786h-7.338z"/><path d="M157.007 228.196h7.338v34.786h-7.338z" opacity=".7" fill="#304FFE"/><path d="M171.496 228.196h7.338v34.786h-7.338z" opacity=".6" fill="#304FFE"/><path d="M185.985 228.196h7.338v34.786h-7.338zM200.474 228.196h7.338v34.786h-7.338z" opacity=".5" fill="#304FFE"/><path d="M214.963 228.196h7.338v34.786h-7.338z" opacity=".4" fill="#304FFE"/><path d="M229.448 228.196h7.338v34.786h-7.338z" opacity=".3" fill="#304FFE"/><circle fill="#304FFE" cx="289.549" cy="245.37" r="17.708"/><path fill="#ECEFF1" d="M126.975 141.56h189.392v67.893H126.975z"/><path fill="#304FFE" d="M142.518 157.661h7.338v34.786h-7.338z"/><path d="M157.007 157.661h7.338v34.786h-7.338z" opacity=".7" fill="#304FFE"/><path d="M171.496 157.661h7.338v34.786h-7.338z" opacity=".6" fill="#304FFE"/><path d="M185.985 157.661h7.338v34.786h-7.338zM200.474 157.661h7.338v34.786h-7.338z" opacity=".5" fill="#304FFE"/><path d="M214.963 157.661h7.338v34.786h-7.338z" opacity=".4" fill="#304FFE"/><path d="M229.448 157.661h7.338v34.786h-7.338z" opacity=".3" fill="#304FFE"/><circle fill="url(#b)" cx="289.549" cy="174.835" r="19.089"/><circle fill="url(#b)" cx="289.549" cy="245.842" r="19.089"/><circle fill="url(#c)" cx="289.549" cy="316.372" r="19.089"/><circle fill="#304FFE" cx="289.549" cy="174.835" r="17.708"/><g fill="#B0BEC5"><path d="M160.741 132.564h4.552v3.036h-4.552zM166.809 132.564h4.552v3.036h-4.552zM172.882 132.564h4.552v3.036h-4.552zM178.95 132.564h4.552v3.036h-4.552zM185.023 132.564h4.552v3.036h-4.552zM191.095 132.564h4.552v3.036h-4.552zM197.163 132.564h4.552v3.036h-4.552zM203.236 132.564h4.552v3.036h-4.552zM209.304 132.564h4.552v3.036h-4.552zM215.377 132.564h4.552v3.036h-4.552z"/></g><path d="M72.518 64.683H2.57a2.406 2.406 0 01-2.406-2.406v-3.81A2.406 2.406 0 012.57 56.06h69.948v8.623z" fill="url(#d)" transform="translate(155 78)"/><path d="M227.518 141.668h-68.683a2.406 2.406 0 01-2.406-2.406v-2.295a2.406 2.406 0 012.406-2.406h68.683v7.107z" fill="#B0BEC5"/><path d="M67.715 57.316L109.1 1.044a2.406 2.406 0 013.368-.51l1.925 1.42a2.406 2.406 0 01.51 3.368L73.518 61.594l-5.803-4.278z" fill="url(#e)" transform="translate(155 78)"/><path d="M223.538 135.918l40.68-55.339a2.406 2.406 0 013.37-.51l.197.145a2.406 2.406 0 01.51 3.368l-40.681 55.338-4.076-3.002z" fill="#B0BEC5"/><path d="M49.27 97.79l50.527 44.694 58.706-12.4-4.547-13.229-45.493 5.37-45.517-39.94a10.341 10.341 0 00-15.264 1.8A10.341 10.341 0 0049.27 97.79z" fill="url(#f)"/><path d="M158.475 130.084s14.975.413 20.508-7.854c5.534-8.267-25.056-5.375-25.056-5.375l4.548 13.229z" fill="url(#g)"/><circle fill="url(#h)" cx="42.644" cy="42.615" r="26.043"/><path d="M31.899 71.136s-33.444 22.52-24.95 92.141a60.95 60.95 0 01-2.147 25.056l-4.33 14.244s73.576 1.655 75.64 0c1.28-1.025.284-27.26-3.306-63.654-2.2-22.294 4.697-53.307-19.012-70.255l-21.895 2.468z" fill="url(#i)"/><path fill="url(#j)" d="M76.122 201.754l32.654 69.029 3.72 70.265H89.35L79.427 268.3l-19.84-35.133-19.84 107.88H16.602l7.025-80.187L.481 202.582z"/><path d="M112.5 341.048l7.026 10.745s23.579 9.095 13.228 14.879H87.7v-25.624H112.5zM39.338 341.048l7.026 10.745s23.579 9.095 13.228 14.879H14.537v-25.624h24.801z" fill="url(#k)"/><path d="M13.223.284A25.913 25.913 0 00.395 3.652C13.104-1.883 27.922 3.51 34.1 15.92c6.178 12.41 1.55 27.484-10.527 34.29C34.902 45.3 41.228 33.115 38.722 21.027 36.217 8.939 25.57.27 13.223.269v.015z" opacity=".2" transform="translate(29.835 15.88)" fill="url(#l)"/><path d="M74.303 0l-7.247 11.068c-2.604 3.98-6.386 8.498-11.068 7.574-2.175-.428-3.917-1.997-5.654-3.369C44.65 10.76 37.62 7.7 30.364 7.656c-7.257-.043-14.682 3.224-18.767 9.215-3.027 4.422-4.071 9.88-4.668 15.201-1.198 10.644 0 23.209 8.888 29.185a4.177 4.177 0 002.522.91c.962-.063 1.742-.674 2.463-1.28 11.126-9.321 17.324-24.48 30.72-30.88 5.914-2.819 14.518-2.843 19.287-7.636 7.026-7.045-.75-15.89 3.494-22.371z" fill="url(#m)"/><g opacity=".2"><path d="M31.08 15.273c1.738 1.381 3.475 2.95 5.655 3.369a6.256 6.256 0 002.676-.053c-2.074-.481-3.754-1.997-5.433-3.325-5.683-4.514-12.714-7.574-19.97-7.618-.51 0-1.016 0-1.526.044 6.785.399 13.306 3.378 18.599 7.583z" fill="url(#n)" transform="translate(16.36)"/><path d="M57.942 0L53.76 6.395c.4 5.26 2.71 11.068-2.19 15.976-4.773 4.812-13.377 4.812-19.286 7.637-13.411 6.4-19.6 21.563-30.72 30.879a7.94 7.94 0 01-1.232.885 3.229 3.229 0 001.66.395c.963-.063 1.742-.674 2.464-1.28 11.125-9.321 17.323-24.48 30.72-30.88 5.914-2.819 14.518-2.843 19.287-7.636 7.01-7.045-.766-15.89 3.479-22.371z" fill="url(#o)" transform="translate(16.36)"/></g><path d="M24.219 70.597C22.019 48.303 28.915 17.29 5.207.342L.187.909C22.974 17.983 16.26 48.55 18.436 70.607c3.59 36.393 4.59 62.628 3.306 63.653-.63.482-7.911.703-17.723.732 12.622.034 22.76-.13 23.512-.732 1.275-1.034.274-27.27-3.311-63.663z" opacity=".2" transform="translate(48.602 68.33)" fill="url(#p)"/><path d="M34.71 106.63l50.525 44.694 58.707-12.4-4.59-13.224-45.47 5.375-45.516-39.94a10.341 10.341 0 00-15.264 1.8 10.341 10.341 0 001.607 13.695z" fill="url(#q)"/><path d="M143.913 138.928s14.975.414 20.51-7.853c5.533-8.267-25.071-5.375-25.071-5.375l4.561 13.228z" fill="url(#r)"/><rect fill="url(#s)" x="31.48" y="57.499" width="22.318" height="22.318" rx="11.159"/><g opacity=".2"><path fill="url(#t)" d="M19.912 31.543L.072 139.423H4.62L23.343 37.617z" transform="translate(35.128 201.624)"/><path fill="url(#u)" d="M73.648 69.158L40.994.13 36.47.178l32.63 68.98 3.72 70.266h4.548z" transform="translate(35.128 201.624)"/></g><path d="M9.33 11.106L2.306.361H.235l7.026 10.745s23.565 9.105 13.233 14.879h2.065C32.89 20.211 9.33 11.106 9.33 11.106z" opacity=".2" transform="translate(110.195 340.692)" fill="url(#v)"/><path d="M9.456 11.106L2.43.361H.366L7.39 11.106s23.58 9.095 13.229 14.879h2.064C33.006 20.211 9.456 11.106 9.456 11.106z" opacity=".2" transform="translate(38.977 340.692)" fill="url(#w)"/><path d="M43.4 2.733l-.88-2.56L.341 5.158z" opacity=".2" transform="translate(103.459 125.113)" fill="url(#x)"/><path fill="url(#y)" d="M21.255 106.144L35.3 79.615l23.406 8.845L35.3 122.269z"/><path d="M50.392 100.134l49.126 43.471 57.085-12.059-4.423-12.862-44.222 5.226-44.27-38.862a10.057 10.057 0 00-14.846 1.751 10.057 10.057 0 001.55 13.335zM156.603 131.542s14.566.404 19.946-7.637c5.38-8.04-24.369-5.226-24.369-5.226l4.423 12.863z" fill="#DEA4A4"/><circle fill="#DEA4A4" cx="43.943" cy="46.475" r="25.326"/><path d="M33.487 74.211S.957 96.115 9.22 163.831a59.28 59.28 0 01-2.089 24.372l-4.196 13.854s71.56 1.607 73.571 0c1.247-.996.275-26.514-3.214-61.911-2.137-21.683 4.567-51.85-18.493-68.331L33.487 74.21z" fill="#263238"/><path fill="#5CAADE" d="M76.506 201.249l31.76 67.137 3.614 68.34H89.369l-9.648-70.75L60.425 231.8 41.128 336.727H18.613l6.833-77.989-22.51-56.686z"/><path d="M111.885 336.727l6.833 10.451s22.914 8.845 12.862 14.475H87.762v-24.926h24.123zM40.705 336.727l6.833 10.451s22.915 8.845 12.863 14.475H16.606v-24.926h24.099z" fill="#263238"/><path d="M44.348 20.745a25.2 25.2 0 00-12.478 3.291c12.33-5.25 26.615.014 32.59 12.01 5.975 11.994 1.572 26.568-10.046 33.247 11.01-4.777 17.157-16.626 14.72-28.378C66.7 29.163 56.35 20.733 44.349 20.725v.02z" fill="#FFF" opacity=".2"/><path d="M74.73 5.024l-7.044 10.774c-2.531 3.85-6.208 8.262-10.745 7.367-2.118-.419-3.807-1.925-5.496-3.287-5.533-4.388-12.367-7.367-19.402-7.41-7.035-.043-14.277 3.137-18.285 8.96-2.94 4.297-3.956 9.624-4.543 14.787-1.164 10.351 0 22.574 8.662 28.391a4.066 4.066 0 002.449.88c.914-.062 1.694-.654 2.406-1.245 10.817-9.061 16.842-23.81 29.883-30.032 5.75-2.743 14.118-2.767 18.767-7.425 6.79-6.853-.775-15.456 3.349-21.76z" fill="#263238"/><g opacity=".2" fill="#FFF"><path d="M48.626 19.878c1.689 1.343 3.368 2.888 5.495 3.287.861.171 1.749.155 2.603-.048-2.016-.481-3.652-1.925-5.293-3.234-5.52-4.393-12.353-7.372-19.388-7.415-.48 0-.986 0-1.482.043 6.559.38 12.887 3.253 18.065 7.367zM74.73 5.024l-4.07 6.222c.385 5.115 2.637 10.75-2.132 15.538-4.643 4.658-12.992 4.682-18.767 7.425-13.045 6.222-19.06 20.97-29.883 30.032a7.7 7.7 0 01-1.198.861c.493.27 1.05.403 1.612.385.915-.063 1.694-.655 2.406-1.246C33.516 55.18 39.54 40.43 52.581 34.209c5.75-2.743 14.119-2.767 18.767-7.425 6.823-6.853-.741-15.456 3.383-21.76z"/></g><path d="M73.292 140.14c-2.137-21.682 4.567-51.849-18.493-68.33l-4.879.553c22.16 16.607 15.63 46.345 17.747 67.792 3.488 35.397 4.46 60.916 3.214 61.912-.61.481-7.699.683-17.236.712 12.28.034 22.135-.13 22.866-.712 1.247-1.01.284-26.524-3.219-61.926z" fill="#FFF" opacity=".2"/><path d="M36.225 108.752l49.126 43.453 57.085-12.06-4.422-12.862-44.223 5.226-44.27-38.862a10.057 10.057 0 00-14.846 1.751 10.057 10.057 0 001.55 13.354zM142.436 140.14s14.566.405 19.946-7.636c5.38-8.04-24.368-5.226-24.368-5.226l4.422 12.863z" fill="#DEA4A4"/><rect fill="#DEA4A4" x="33.088" y="60.944" width="21.707" height="21.707" rx="10.854"/><g opacity=".2" fill="#FFF"><path d="M56.002 231.8L36.706 336.727h4.422l18.21-99.018zM108.266 268.386l-31.76-67.137-4.403.048 31.74 67.09 3.614 68.34h4.423z"/></g><path d="M118.718 347.183l-6.833-10.452h-2.012l6.833 10.452s22.915 8.845 12.863 14.475h2.011c10.052-5.63-12.862-14.475-12.862-14.475zM49.574 347.183l-6.834-10.452h-2.035l6.833 10.452s22.915 8.845 12.863 14.475h2.011c10.052-5.63-12.838-14.475-12.838-14.475zM145.3 129.367l-.852-2.488-41.023 4.846z" fill="#FFF" opacity=".2"/><path fill="#263238" d="M23.141 108.256L36.798 82.46l22.765 8.599-22.765 32.88z"/></g></g></svg>
