<?xml version="1.0" encoding="UTF-8"?>
<svg xmlns="http://www.w3.org/2000/svg" xmlns:xlink="http://www.w3.org/1999/xlink" width="238.7pt" height="81.8pt" viewBox="0 0 238.7 81.8" version="1.1">
<defs>
<clipPath id="clip1">
  <path d="M 0 27 L 54 27 L 54 81.800781 L 0 81.800781 Z M 0 27 "/>
</clipPath>
<clipPath id="clip2">
  <path d="M 64 70 L 238.699219 70 L 238.699219 81.800781 L 64 81.800781 Z M 64 70 "/>
</clipPath>
</defs>
<g id="surface1">
<g clip-path="url(#clip1)" clip-rule="nonzero">
<path style=" stroke:none;fill-rule:evenodd;fill:rgb(14.892578%,54.101563%,79.6875%);fill-opacity:1;" d="M 4.023438 30.320313 L 49.976563 27.777344 C 51.503906 27.691406 53.066406 29.0625 52.761719 30.566406 C 49.46875 46.890625 50.050781 63.003906 53.632813 78.957031 C 53.96875 80.453125 52.378906 81.742188 50.847656 81.742188 L 2.628906 81.742188 C 1.097656 81.742188 0.0117188 79.941406 0.433594 78.46875 C 4.097656 65.710938 5.050781 51.371094 1.652344 33.039063 C 1.375 31.53125 2.492188 30.40625 4.023438 30.320313 Z M 4.023438 30.320313 "/>
</g>
<path style=" stroke:none;fill-rule:evenodd;fill:rgb(100%,100%,100%);fill-opacity:1;" d="M 15.207031 37.011719 C 16.320313 37.011719 17.226563 37.914063 17.226563 39.03125 C 17.226563 40.148438 16.320313 41.046875 15.207031 41.046875 C 14.089844 41.046875 13.183594 40.148438 13.183594 39.03125 C 13.183594 37.914063 14.089844 37.011719 15.207031 37.011719 Z M 36.027344 45.945313 C 36.019531 44.871094 36.882813 43.996094 37.957031 43.988281 C 39.03125 43.980469 39.90625 44.839844 39.914063 45.914063 L 39.914063 45.996094 L 39.917969 46.070313 L 39.921875 46.070313 C 39.921875 49.78125 38.417969 53.144531 35.984375 55.578125 C 33.550781 58.011719 30.1875 59.515625 26.476563 59.515625 C 22.761719 59.515625 19.402344 58.011719 16.96875 55.578125 C 14.535156 53.144531 13.027344 49.78125 13.027344 46.070313 L 13.035156 46.070313 L 13.035156 45.996094 C 13.035156 44.929688 13.90625 44.058594 14.980469 44.058594 C 16.050781 44.058594 16.921875 44.929688 16.921875 45.996094 L 16.921875 46.070313 L 16.929688 46.070313 C 16.929688 48.703125 18 51.089844 19.726563 52.820313 C 21.453125 54.542969 23.839844 55.613281 26.476563 55.613281 C 29.113281 55.613281 31.5 54.542969 33.226563 52.820313 C 34.953125 51.089844 36.023438 48.703125 36.023438 46.070313 L 36.03125 46.070313 L 36.027344 46.015625 Z M 37.746094 37.011719 C 38.863281 37.011719 39.765625 37.914063 39.765625 39.03125 C 39.765625 40.148438 38.863281 41.046875 37.746094 41.046875 C 36.628906 41.046875 35.726563 40.148438 35.726563 39.03125 C 35.726563 37.914063 36.628906 37.011719 37.746094 37.011719 Z M 37.746094 37.011719 "/>
<path style=" stroke:none;fill-rule:evenodd;fill:rgb(56.054688%,76.951599%,24.705505%);fill-opacity:1;" d="M 22.914063 27.238281 L 20.824219 9.679688 L 21.796875 8.664063 C 21.84375 8.761719 21.890625 8.84375 21.9375 8.914063 C 22.632813 8.566406 24.4375 7.546875 25.6875 6.835938 C 26.101563 7.277344 26.6875 7.546875 27.339844 7.546875 C 28.027344 7.546875 28.644531 7.242188 29.0625 6.757813 L 33.421875 7.699219 L 34.621094 8.460938 C 34.621094 8.460938 36.332031 23.074219 36.777344 27.054688 L 23.019531 27.816406 Z M 24.546875 3.503906 L 23.054688 0.96875 C 23.054688 0.96875 23.699219 0.691406 24.0625 0.847656 C 24.429688 1.003906 24.863281 1.230469 25.089844 1.121094 C 25.316406 1.023438 26.136719 0.164063 26.484375 0.0429688 C 26.832031 -0.078125 26.9375 -0.078125 26.9375 -0.078125 C 26.9375 -0.078125 28.019531 0.253906 28.277344 0.515625 C 28.539063 0.777344 28.679688 0.898438 28.941406 0.792969 C 29.203125 0.691406 29.953125 0.0820313 30.246094 0.0429688 C 30.542969 0.0117188 30.734375 0.0273438 30.734375 0.0273438 L 29.925781 3.121094 C 29.582031 3.320313 29.242188 3.511719 28.941406 3.683594 C 28.53125 3.273438 27.964844 3.019531 27.339844 3.019531 C 26.679688 3.019531 26.089844 3.296875 25.675781 3.746094 Z M 24.546875 3.503906 "/>
<path style=" stroke:none;fill-rule:evenodd;fill:rgb(11.767578%,67.381287%,29.417419%);fill-opacity:1;" d="M 21.207031 2.78125 C 21.007813 3.222656 21.121094 7.757813 21.9375 8.914063 C 22.632813 8.566406 24.4375 7.546875 25.6875 6.835938 C 26.101563 7.277344 26.6875 7.546875 27.339844 7.546875 C 28.027344 7.546875 28.644531 7.242188 29.0625 6.757813 L 33.472656 7.710938 C 33.671875 7.269531 33.554688 2.734375 32.738281 1.578125 C 32.035156 1.929688 30.195313 2.96875 28.941406 3.683594 C 28.53125 3.273438 27.964844 3.019531 27.339844 3.019531 C 26.679688 3.019531 26.089844 3.296875 25.675781 3.746094 Z M 21.207031 2.78125 "/>
<path style=" stroke:none;fill-rule:evenodd;fill:rgb(87.5%,19.604492%,52.539063%);fill-opacity:1;" d="M 32.148438 13.445313 L 38.277344 14.820313 L 38.484375 14.867188 L 38.277344 14.820313 L 35.519531 27.121094 L 27.675781 27.558594 L 30.621094 14.414063 C 30.777344 13.726563 31.464844 13.289063 32.148438 13.445313 Z M 46.066406 16.566406 L 51.722656 17.832031 C 52.410156 17.988281 52.84375 18.671875 52.691406 19.363281 L 51.144531 26.261719 L 43.300781 26.695313 L 45.5625 16.605469 C 45.734375 16.59375 45.902344 16.582031 46.066406 16.566406 Z M 46.066406 16.566406 "/>
<path style=" stroke:none;fill-rule:evenodd;fill:rgb(93.75%,59.179688%,12.547302%);fill-opacity:1;" d="M 38.277344 14.820313 L 38.484375 14.867188 C 37.441406 14.089844 34.761719 12.316406 35.410156 10.839844 C 36.21875 8.996094 38.273438 9.164063 39.460938 10.304688 C 40.652344 11.441406 41.316406 13.386719 41.386719 14.558594 C 41.386719 14.558594 42.152344 14.320313 42.726563 14.601563 C 43.300781 14.882813 43.40625 14.9375 43.40625 14.9375 C 43.40625 14.9375 46.28125 11.265625 48.222656 11.992188 C 50.164063 12.722656 50.707031 14.253906 50.152344 14.914063 C 49.636719 15.539063 47.941406 16.488281 45.5625 16.605469 L 43.300781 26.695313 L 35.519531 27.121094 Z M 39.894531 14.066406 C 39.894531 14.066406 39.257813 11.582031 38.382813 11.152344 C 37.507813 10.722656 36.96875 10.894531 36.71875 11.402344 C 36.46875 11.910156 38.148438 13.078125 39.894531 14.066406 Z M 48.367188 13.507813 C 48.367188 13.507813 48.996094 14.011719 48.757813 14.394531 C 48.519531 14.78125 46.359375 15.222656 45.898438 15.238281 C 45.433594 15.253906 44.882813 15.226563 44.882813 15.226563 C 44.882813 15.226563 46.214844 13.996094 46.933594 13.59375 C 47.652344 13.1875 48.109375 13.3125 48.367188 13.507813 Z M 48.367188 13.507813 "/>
<path style=" stroke:none;fill-rule:evenodd;fill:rgb(93.75%,59.179688%,12.547302%);fill-opacity:1;" d="M 2.558594 20.84375 L 9.875 19.078125 L 10.121094 19.019531 L 9.875 19.078125 L 12.128906 28.417969 L 2.933594 28.929688 L 1.429688 22.695313 C 1.230469 21.871094 1.738281 21.039063 2.558594 20.84375 Z M 19.171875 16.835938 L 25.925781 15.203125 C 26.746094 15.007813 27.578125 15.515625 27.777344 16.335938 L 30.449219 27.40625 L 21.253906 27.914063 L 18.652344 17.140625 C 18.832031 17.039063 19.007813 16.9375 19.171875 16.835938 Z M 19.171875 16.835938 "/>
<path style=" stroke:none;fill-rule:evenodd;fill:rgb(89.451599%,12.156677%,16.088867%);fill-opacity:1;" d="M 9.875 19.078125 L 10.121094 19.019531 C 8.589844 18.738281 4.769531 18.246094 4.683594 16.316406 C 4.578125 13.914063 6.878906 13.007813 8.761719 13.597656 C 10.640625 14.191406 12.382813 15.933594 13.082031 17.152344 C 13.082031 17.152344 13.777344 16.492188 14.542969 16.492188 C 15.308594 16.492188 15.449219 16.492188 15.449219 16.492188 C 15.449219 16.492188 16.597656 11.019531 19.074219 10.777344 C 21.546875 10.53125 22.941406 11.890625 22.695313 12.902344 C 22.46875 13.84375 21.148438 15.757813 18.652344 17.140625 L 21.253906 27.914063 L 12.128906 28.417969 Z M 11.214844 17.414063 C 11.214844 17.414063 9.214844 15.078125 8.046875 15.078125 C 6.878906 15.078125 6.390625 15.546875 6.390625 16.230469 C 6.390625 16.910156 8.8125 17.273438 11.214844 17.414063 Z M 20.03125 12.328125 C 20.03125 12.328125 20.972656 12.535156 20.917969 13.074219 C 20.867188 13.617188 18.777344 15.234375 18.289063 15.496094 C 17.800781 15.757813 17.191406 16.019531 17.191406 16.019531 C 17.191406 16.019531 17.976563 13.996094 18.53125 13.179688 C 19.089844 12.363281 19.648438 12.257813 20.03125 12.328125 Z M 20.03125 12.328125 "/>
<path style=" stroke:none;fill-rule:evenodd;fill:rgb(14.892578%,54.101563%,79.6875%);fill-opacity:1;" d="M 80.597656 27.46875 C 89.757813 27.46875 97.183594 34.894531 97.183594 44.046875 C 97.183594 53.210938 89.757813 60.636719 80.597656 60.636719 C 71.441406 60.636719 64.015625 53.210938 64.015625 44.046875 L 64.015625 18.339844 C 66.191406 15.96875 68.789063 14.511719 71.800781 14.371094 C 71.800781 23.777344 71.800781 33.183594 71.800781 42.589844 C 71.800781 49.496094 74.5 55.320313 79.824219 55.320313 C 86.046875 55.320313 89.707031 50.277344 89.707031 44.046875 C 89.707031 37.828125 84.664063 32.785156 78.441406 32.785156 C 77.320313 32.785156 76.238281 32.945313 75.214844 33.246094 C 75.214844 33.246094 76.632813 29.566406 79.332031 27.515625 C 79.75 27.484375 80.171875 27.46875 80.597656 27.46875 Z M 196.09375 9.964844 C 197.765625 9.964844 199.285156 10.605469 200.425781 11.652344 L 198.8125 13.265625 C 198.085938 12.628906 197.136719 12.242188 196.09375 12.242188 C 193.816406 12.242188 191.972656 14.089844 191.972656 16.363281 C 191.972656 18.640625 193.816406 20.488281 196.09375 20.488281 C 197.136719 20.488281 198.085938 20.101563 198.8125 19.464844 L 200.425781 21.078125 C 199.285156 22.121094 197.765625 22.765625 196.09375 22.765625 C 192.558594 22.765625 189.695313 19.898438 189.695313 16.363281 C 189.695313 12.828125 192.558594 9.964844 196.09375 9.964844 Z M 217.09375 11.492188 C 217.828125 10.691406 218.691406 10.160156 219.675781 10.007813 L 219.675781 12.105469 C 220.171875 11.503906 221.605469 10.015625 223.523438 10.015625 C 225.714844 10.015625 227.027344 11.070313 227.503906 12.339844 C 227.613281 12.1875 229.21875 10.015625 231.539063 10.015625 C 234.871094 10.015625 235.976563 12.210938 235.976563 15.132813 L 235.976563 20.820313 C 235.140625 21.730469 234.140625 22.289063 232.980469 22.347656 L 232.980469 15.015625 C 232.980469 15.015625 232.863281 12.539063 230.804688 12.539063 C 227.675781 12.539063 228.121094 15.007813 227.964844 15.589844 L 227.964844 20.820313 C 227.125 21.730469 226.125 22.289063 224.964844 22.347656 L 224.964844 15.015625 C 224.964844 15.015625 224.847656 12.539063 222.792969 12.539063 C 220.738281 12.539063 220.089844 13.953125 220.089844 15.207031 L 220.089844 20.820313 C 219.253906 21.730469 218.253906 22.289063 217.09375 22.347656 Z M 208.777344 9.964844 C 212.3125 9.964844 215.175781 12.828125 215.175781 16.363281 C 215.175781 19.898438 212.3125 22.765625 208.777344 22.765625 C 205.242188 22.765625 202.375 19.898438 202.375 16.363281 C 202.375 12.828125 205.242188 9.964844 208.777344 9.964844 Z M 208.777344 12.242188 C 211.054688 12.242188 212.898438 14.089844 212.898438 16.363281 C 212.898438 18.640625 211.054688 20.488281 208.777344 20.488281 C 206.5 20.488281 204.652344 18.640625 204.652344 16.363281 C 204.652344 14.089844 206.5 12.242188 208.777344 12.242188 Z M 144.425781 27.46875 C 153.582031 27.46875 161.007813 34.894531 161.007813 44.046875 C 161.007813 53.210938 153.582031 60.636719 144.425781 60.636719 C 135.265625 60.636719 127.839844 53.210938 127.839844 44.046875 L 127.839844 18.339844 C 130.015625 15.96875 132.613281 14.511719 135.625 14.371094 C 135.625 23.777344 135.625 33.183594 135.625 42.589844 C 135.625 49.496094 138.324219 55.320313 143.648438 55.320313 C 149.871094 55.320313 153.535156 50.277344 153.535156 44.046875 C 153.535156 37.828125 148.488281 32.785156 142.265625 32.785156 C 141.144531 32.785156 140.0625 32.945313 139.039063 33.246094 C 139.039063 33.246094 140.457031 29.566406 143.160156 27.515625 C 143.578125 27.484375 144 27.46875 144.425781 27.46875 Z M 179.125 31.371094 C 181.300781 28.996094 183.898438 27.539063 186.910156 27.398438 C 186.910156 44.679688 186.910156 39.382813 186.910156 56.664063 C 184.734375 59.035156 182.136719 60.496094 179.125 60.636719 C 179.125 43.355469 179.125 48.652344 179.125 31.371094 Z M 183.015625 14.613281 C 185.171875 14.613281 186.917969 16.359375 186.917969 18.515625 C 186.917969 20.667969 185.171875 22.414063 183.015625 22.414063 C 180.863281 22.414063 179.113281 20.667969 179.113281 18.515625 C 179.113281 16.359375 180.863281 14.613281 183.015625 14.613281 Z M 166.164063 8.792969 C 168.339844 6.421875 170.9375 4.964844 173.949219 4.824219 C 173.949219 22.105469 173.949219 39.382813 173.949219 56.664063 C 171.773438 59.035156 169.175781 60.496094 166.164063 60.636719 C 166.164063 43.355469 166.164063 26.074219 166.164063 8.792969 Z M 115.300781 31.371094 C 117.476563 28.996094 120.070313 27.539063 123.085938 27.398438 C 123.085938 44.679688 123.085938 39.382813 123.085938 56.664063 C 120.90625 59.035156 118.3125 60.496094 115.300781 60.636719 C 115.300781 43.355469 115.300781 48.652344 115.300781 31.371094 Z M 119.191406 14.613281 C 121.347656 14.613281 123.09375 16.359375 123.09375 18.515625 C 123.09375 20.667969 121.347656 22.414063 119.191406 22.414063 C 117.035156 22.414063 115.289063 20.667969 115.289063 18.515625 C 115.289063 16.359375 117.035156 14.613281 119.191406 14.613281 Z M 102.339844 8.792969 C 104.515625 6.421875 107.113281 4.964844 110.125 4.824219 C 110.125 22.105469 110.125 39.382813 110.125 56.664063 C 107.949219 59.035156 105.351563 60.496094 102.339844 60.636719 C 102.339844 43.355469 102.339844 26.074219 102.339844 8.792969 Z M 102.339844 8.792969 "/>
<g clip-path="url(#clip2)" clip-rule="nonzero">
<path style=" stroke:none;fill-rule:evenodd;fill:rgb(14.892578%,54.101563%,79.6875%);fill-opacity:1;" d="M 64.015625 81.335938 L 68.039063 81.335938 C 70.785156 81.335938 71.929688 80.121094 71.929688 78.347656 C 71.929688 77.167969 71.21875 76.269531 69.984375 75.996094 C 70.929688 75.703125 71.421875 74.875 71.421875 73.945313 C 71.421875 72.292969 70.246094 71.167969 67.808594 71.167969 L 64.015625 71.167969 Z M 69.609375 78.273438 C 69.609375 79.144531 69.042969 79.582031 67.851563 79.582031 L 66.296875 79.582031 L 66.296875 76.96875 L 67.851563 76.96875 C 69.042969 76.96875 69.609375 77.417969 69.609375 78.273438 Z M 69.230469 74.078125 C 69.230469 74.847656 68.691406 75.269531 67.660156 75.269531 L 66.296875 75.269531 L 66.296875 72.929688 L 67.660156 72.929688 C 68.691406 72.929688 69.230469 73.277344 69.230469 74.078125 Z M 73.679688 81.335938 L 76.003906 81.335938 L 76.003906 71.167969 L 73.679688 71.167969 Z M 77.8125 76.257813 C 77.8125 79.449219 79.933594 81.511719 82.910156 81.511719 C 84.726563 81.511719 86.179688 80.816406 87.09375 79.65625 L 87.09375 75.734375 L 82.835938 75.734375 L 82.835938 77.402344 L 84.886719 77.402344 L 84.886719 78.792969 C 84.507813 79.304688 83.765625 79.582031 82.9375 79.582031 C 81.398438 79.582031 80.152344 78.433594 80.152344 76.257813 C 80.152344 74.078125 81.371094 72.929688 82.78125 72.929688 C 83.867188 72.929688 84.625 73.410156 85.132813 74.28125 L 87.0625 73.332031 C 86.179688 71.828125 84.667969 70.996094 82.691406 70.996094 C 79.832031 70.996094 77.8125 73.074219 77.8125 76.257813 Z M 166.277344 81.335938 L 170.300781 81.335938 C 173.046875 81.335938 174.191406 80.121094 174.191406 78.347656 C 174.191406 77.167969 173.480469 76.269531 172.246094 75.996094 C 173.191406 75.703125 173.683594 74.875 173.683594 73.945313 C 173.683594 72.292969 172.507813 71.167969 170.066406 71.167969 L 166.277344 71.167969 Z M 171.867188 78.273438 C 171.867188 79.144531 171.300781 79.582031 170.113281 79.582031 L 168.558594 79.582031 L 168.558594 76.96875 L 170.113281 76.96875 C 171.300781 76.96875 171.867188 77.417969 171.867188 78.273438 Z M 171.492188 74.078125 C 171.492188 74.847656 170.953125 75.269531 169.921875 75.269531 L 168.558594 75.269531 L 168.558594 72.929688 L 169.921875 72.929688 C 170.953125 72.929688 171.492188 73.277344 171.492188 74.078125 Z M 175.941406 81.335938 L 178.265625 81.335938 L 178.265625 71.167969 L 175.941406 71.167969 Z M 180.074219 76.257813 C 180.074219 79.449219 182.195313 81.511719 185.171875 81.511719 C 186.988281 81.511719 188.4375 80.816406 189.355469 79.65625 L 189.355469 75.734375 L 185.097656 75.734375 L 185.097656 77.402344 L 187.148438 77.402344 L 187.148438 78.792969 C 186.769531 79.304688 186.027344 79.582031 185.199219 79.582031 C 183.660156 79.582031 182.410156 78.433594 182.410156 76.257813 C 182.410156 74.078125 183.632813 72.929688 185.039063 72.929688 C 186.128906 72.929688 186.886719 73.410156 187.394531 74.28125 L 189.324219 73.332031 C 188.4375 71.828125 186.929688 70.996094 184.953125 70.996094 C 182.09375 70.996094 180.074219 73.074219 180.074219 76.257813 Z M 92.980469 76.257813 C 92.980469 79.347656 94.824219 81.511719 97.714844 81.511719 C 99.5625 81.511719 100.941406 80.640625 101.679688 79.449219 L 100.636719 78.792969 C 99.867188 79.871094 98.964844 80.351563 97.761719 80.351563 C 95.785156 80.351563 94.289063 78.914063 94.289063 76.257813 C 94.289063 73.597656 95.785156 72.160156 97.761719 72.160156 C 98.964844 72.160156 99.867188 72.640625 100.636719 73.710938 L 101.679688 73.0625 C 100.941406 71.871094 99.5625 70.996094 97.714844 70.996094 C 94.824219 70.996094 92.980469 73.164063 92.980469 76.257813 Z M 103.503906 81.335938 L 104.78125 81.335938 L 104.78125 76.5 L 110.097656 76.5 L 110.097656 81.335938 L 111.375 81.335938 L 111.375 71.167969 L 110.097656 71.167969 L 110.097656 75.371094 L 104.78125 75.371094 L 104.78125 71.167969 L 103.503906 71.167969 Z M 122.347656 76.257813 C 122.347656 73.308594 120.691406 70.996094 117.816406 70.996094 C 114.925781 70.996094 113.269531 73.308594 113.269531 76.257813 C 113.269531 79.203125 114.925781 81.511719 117.816406 81.511719 C 120.691406 81.511719 122.347656 79.203125 122.347656 76.257813 Z M 114.578125 76.257813 C 114.578125 73.742188 115.839844 72.160156 117.816406 72.160156 C 119.777344 72.160156 121.039063 73.742188 121.039063 76.257813 C 121.039063 78.769531 119.777344 80.351563 117.816406 80.351563 C 115.839844 80.351563 114.578125 78.769531 114.578125 76.257813 Z M 124.3125 81.335938 L 125.59375 81.335938 L 125.59375 71.167969 L 124.3125 71.167969 Z M 127.558594 76.257813 C 127.558594 79.347656 129.40625 81.511719 132.292969 81.511719 C 134.140625 81.511719 135.519531 80.640625 136.257813 79.449219 L 135.214844 78.792969 C 134.445313 79.871094 133.542969 80.351563 132.339844 80.351563 C 130.363281 80.351563 128.867188 78.914063 128.867188 76.257813 C 128.867188 73.597656 130.363281 72.160156 132.339844 72.160156 C 133.542969 72.160156 134.445313 72.640625 135.214844 73.710938 L 136.257813 73.0625 C 135.519531 71.871094 134.140625 70.996094 132.292969 70.996094 C 129.40625 70.996094 127.558594 73.164063 127.558594 76.257813 Z M 138.082031 81.335938 L 144.542969 81.335938 L 144.542969 80.207031 L 139.359375 80.207031 L 139.359375 76.664063 L 143.90625 76.664063 L 143.90625 75.53125 L 139.359375 75.53125 L 139.359375 72.304688 L 144.414063 72.304688 L 144.414063 71.167969 L 138.082031 71.167969 Z M 149.824219 80.351563 C 148.632813 80.351563 147.601563 79.914063 146.6875 78.941406 L 145.714844 79.757813 C 146.800781 80.914063 148.167969 81.511719 149.808594 81.511719 C 151.988281 81.511719 153.28125 80.332031 153.28125 78.667969 C 153.28125 76.867188 152.160156 76.097656 149.648438 75.429688 C 148.125 75.019531 147.484375 74.351563 147.484375 73.613281 C 147.484375 72.757813 148.109375 72.160156 149.402344 72.160156 C 150.375 72.160156 151.203125 72.582031 151.957031 73.332031 L 152.886719 72.566406 C 151.988281 71.566406 150.738281 70.996094 149.375 70.996094 C 147.367188 70.996094 146.179688 72.082031 146.179688 73.613281 C 146.179688 74.832031 146.859375 75.9375 149.300781 76.5625 C 151.21875 77.054688 151.972656 77.542969 151.972656 78.738281 C 151.972656 79.65625 151.144531 80.351563 149.824219 80.351563 Z M 195.75 81.335938 L 199.0625 81.335938 C 202.128906 81.335938 203.882813 79.4375 203.882813 76.257813 C 203.882813 73.085938 202.128906 71.167969 199.0625 71.167969 L 195.75 71.167969 Z M 197.027344 80.207031 L 197.027344 72.304688 L 198.960938 72.304688 C 201.253906 72.304688 202.578125 73.742188 202.578125 76.257813 C 202.578125 78.78125 201.253906 80.207031 198.960938 80.207031 Z M 205.777344 81.335938 L 212.242188 81.335938 L 212.242188 80.207031 L 207.058594 80.207031 L 207.058594 76.664063 L 211.601563 76.664063 L 211.601563 75.53125 L 207.058594 75.53125 L 207.058594 72.304688 L 212.113281 72.304688 L 212.113281 71.167969 L 205.777344 71.167969 Z M 217.113281 71.167969 L 213.191406 81.335938 L 214.601563 81.335938 L 215.558594 78.707031 L 220.0625 78.707031 L 221.019531 81.335938 L 222.429688 81.335938 L 218.507813 71.167969 Z M 217.8125 72.507813 L 219.65625 77.578125 L 215.964844 77.578125 Z M 223.960938 81.335938 L 230.277344 81.335938 L 230.277344 80.207031 L 225.238281 80.207031 L 225.238281 71.167969 L 223.960938 71.167969 Z M 235.265625 80.351563 C 234.078125 80.351563 233.046875 79.914063 232.128906 78.941406 L 231.15625 79.757813 C 232.246094 80.914063 233.613281 81.511719 235.253906 81.511719 C 237.429688 81.511719 238.722656 80.332031 238.722656 78.667969 C 238.722656 76.867188 237.605469 76.097656 235.09375 75.429688 C 233.566406 75.023438 232.929688 74.351563 232.929688 73.613281 C 232.929688 72.757813 233.554688 72.160156 234.847656 72.160156 C 235.820313 72.160156 236.648438 72.582031 237.402344 73.332031 L 238.332031 72.566406 C 237.429688 71.566406 236.183594 70.996094 234.816406 70.996094 C 232.8125 70.996094 231.621094 72.082031 231.621094 73.613281 C 231.621094 74.832031 232.304688 75.933594 234.746094 76.5625 C 236.660156 77.054688 237.417969 77.542969 237.417969 78.738281 C 237.417969 79.65625 236.589844 80.351563 235.265625 80.351563 Z M 235.265625 80.351563 "/>
</g>
</g>
</svg>
