<?xml version="1.0" encoding="UTF-8"?>
<!DOCTYPE svg PUBLIC "-//W3C//DTD SVG 1.1//EN" "http://www.w3.org/Graphics/SVG/1.1/DTD/svg11.dtd">
<!-- Creator: CorelDRAW 2019 (64-Bit) -->
<svg xmlns="http://www.w3.org/2000/svg" xml:space="preserve" width="976px" height="240px" version="1.1" style="shape-rendering:geometricPrecision; text-rendering:geometricPrecision; image-rendering:optimizeQuality; fill-rule:evenodd; clip-rule:evenodd"
viewBox="0 0 976 240.08"
 xmlns:xlink="http://www.w3.org/1999/xlink"
 xmlns:xodm="http://www.corel.com/coreldraw/odm/2003">
 <defs>
  <style type="text/css">
   <![CDATA[
    .fil2 {fill:#E95151;fill-rule:nonzero}
    .fil4 {fill:#EDB850;fill-rule:nonzero}
    .fil3 {fill:#99666A;fill-rule:nonzero}
    .fil1 {fill:#73BD63;fill-rule:nonzero}
    .fil0 {fill:#4D4B4C;fill-rule:nonzero}
   ]]>
  </style>
 </defs>
 <g id="Layer_x0020_1">
  <metadata id="CorelCorpID_0Corel-Layer"/>
  <g id="_2439690589408">
   <path class="fil0" d="M122.67 155.62c0,5.04 -0.71,9.58 -2.07,13.63 -1.39,4.05 -3.57,7.5 -6.56,10.34 -3.01,2.85 -7,5.02 -11.93,6.56 -4.96,1.55 -11.09,2.33 -18.38,2.33l-48.67 0c1.44,6.65 5.34,12.27 11.67,16.91 6.34,4.63 14.68,6.93 25.07,6.93 10.38,0 18.37,-0.77 23.98,-2.3 5.59,-1.55 9.02,-2.63 10.35,-3.3l9.23 24.1c-0.33,0.33 -1.7,0.98 -4.13,1.94 -2.44,0.98 -5.74,2 -9.86,3.05 -4.13,1.06 -9.05,2.03 -14.72,2.92 -5.67,0.89 -12.02,1.34 -18.98,1.34 -9.75,0 -18.71,-1.31 -26.89,-3.9 -8.2,-2.6 -15.33,-6.57 -21.44,-11.92 -6.05,-5.36 -10.83,-12.08 -14.23,-20.2 -3.41,-8.11 -5.11,-17.69 -5.11,-28.71 0,-10.23 1.58,-19.48 4.76,-27.75 3.15,-8.28 7.62,-15.38 13.38,-21.3 5.74,-5.91 12.69,-10.5 20.8,-13.75 8.1,-3.25 17.12,-4.87 27.01,-4.87 9.25,0 17.42,1.26 24.47,3.77 7.06,2.52 12.98,5.96 17.77,10.35 4.8,4.38 8.39,9.49 10.83,15.33 2.43,5.83 3.65,12 3.65,18.5zm-32.12 -2.92l0 0c0,-2.27 -0.44,-4.71 -1.36,-7.31 -0.87,-2.59 -2.3,-4.95 -4.22,-7.05 -1.98,-2.11 -4.58,-3.87 -7.83,-5.24 -3.23,-1.38 -7.22,-2.08 -11.91,-2.08 -5.19,0 -9.75,1.15 -13.62,3.42 -3.9,2.27 -7.15,5.12 -9.75,8.51 -2.59,3.42 -4.52,7.15 -5.84,11.21 -1.29,4.06 -1.93,7.94 -1.93,11.67l43.55 0c5.35,0 8.84,-1.1 10.47,-3.28 1.62,-2.18 2.44,-5.48 2.44,-9.85z"/>
   <path class="fil0" d="M143.59 75.31c0,-5.52 1.64,-9.34 4.87,-11.44 3.25,-2.11 7.55,-3.16 12.91,-3.16 3.73,0 7.17,0.4 10.35,1.2 3.15,0.83 5.14,1.38 5.95,1.7l0 176.47 -34.08 0 0 -164.77z"/>
   <path class="fil0" d="M322.49 155.62c0,5.04 -0.71,9.58 -2.08,13.63 -1.38,4.05 -3.58,7.5 -6.59,10.34 -2.99,2.85 -6.96,5.02 -11.91,6.56 -4.95,1.55 -11.07,2.33 -18.36,2.33l-48.69 0c1.46,6.65 5.35,12.27 11.69,16.91 6.33,4.63 14.67,6.93 25.07,6.93 10.38,0 18.38,-0.77 23.96,-2.3 5.61,-1.55 9.05,-2.63 10.35,-3.3l9.25 24.1c-0.32,0.33 -1.7,0.98 -4.16,1.94 -2.42,0.98 -5.69,2 -9.83,3.05 -4.16,1.06 -9.05,2.03 -14.74,2.92 -5.69,0.89 -12,1.34 -18.98,1.34 -9.73,0 -18.7,-1.31 -26.9,-3.9 -8.19,-2.6 -15.32,-6.57 -21.41,-11.92 -6.08,-5.36 -10.83,-12.08 -14.23,-20.2 -3.41,-8.11 -5.12,-17.69 -5.12,-28.71 0,-10.23 1.59,-19.48 4.76,-27.75 3.14,-8.28 7.6,-15.38 13.37,-21.3 5.76,-5.91 12.71,-10.5 20.82,-13.75 8.1,-3.25 17.11,-4.87 27.01,-4.87 9.25,0 17.4,1.26 24.47,3.77 7.04,2.52 12.98,5.96 17.76,10.35 4.78,4.38 8.39,9.49 10.83,15.33 2.44,5.83 3.66,12 3.66,18.5zm-32.15 -2.92l0 0c0,-2.27 -0.45,-4.71 -1.32,-7.31 -0.9,-2.59 -2.32,-4.95 -4.25,-7.05 -1.96,-2.11 -4.56,-3.87 -7.82,-5.24 -3.24,-1.38 -7.21,-2.08 -11.92,-2.08 -5.19,0 -9.73,1.15 -13.63,3.42 -3.89,2.27 -7.14,5.12 -9.71,8.51 -2.62,3.42 -4.54,7.15 -5.85,11.21 -1.31,4.06 -1.96,7.94 -1.96,11.67l43.57 0c5.36,0 8.83,-1.1 10.47,-3.28 1.61,-2.18 2.42,-5.48 2.42,-9.85z"/>
   <path class="fil0" d="M472.09 120.58c-0.8,3.08 -2.36,7.65 -4.61,13.76 -2.29,6.06 -5.04,12.92 -8.27,20.54 -3.27,7.65 -6.74,15.68 -10.47,24.1 -3.73,8.46 -7.46,16.56 -11.21,24.35 -3.72,7.79 -7.22,14.94 -10.45,21.4 -3.25,6.5 -6.02,11.62 -8.29,15.34l-34.08 0c-4.85,-8.91 -9.85,-18.6 -14.95,-29.07 -5.11,-10.47 -9.84,-20.41 -14.12,-29.82 -4.3,-9.42 -7.94,-17.57 -10.95,-24.46 -3.01,-6.89 -4.83,-11.24 -5.48,-13.01 -1.14,-2.6 -2.07,-5.03 -2.79,-7.31 -0.74,-2.27 -1.1,-4.78 -1.1,-7.55 0,-1.96 0.27,-3.82 0.84,-5.59 0.57,-1.78 1.5,-3.42 2.8,-4.88 1.31,-1.46 3.03,-2.63 5.25,-3.52 2.2,-0.9 4.98,-1.34 8.39,-1.34 4.86,0 8.47,0.49 10.83,1.46 2.35,0.98 3.61,1.54 3.76,1.7 1.96,5.69 4.46,12.65 7.55,20.94 3.08,8.27 6.35,16.71 9.75,25.31 3.39,8.61 6.72,16.86 9.97,24.82 3.25,7.95 6,14.36 8.29,19.22 0.79,-1.61 2.37,-5.14 4.73,-10.59 2.33,-5.43 4.98,-11.79 7.9,-19.1 2.94,-7.3 5.97,-15.04 9.13,-23.24 3.17,-8.19 6.06,-15.85 8.65,-23.01 2.1,-5.82 4.59,-10.21 7.41,-13.13 2.85,-2.92 7.34,-4.38 13.5,-4.38 5.21,0 9.35,0.98 12.43,2.92 3.07,1.94 4.93,3.33 5.59,4.14z"/>
   <path class="fil0" d="M598.41 155.62c0,5.04 -0.71,9.58 -2.07,13.63 -1.39,4.05 -3.57,7.5 -6.6,10.34 -2.99,2.85 -6.96,5.02 -11.91,6.56 -4.94,1.55 -11.08,2.33 -18.36,2.33l-48.69 0c1.46,6.65 5.36,12.27 11.69,16.91 6.34,4.63 14.68,6.93 25.06,6.93 10.39,0 18.38,-0.77 23.99,-2.3 5.59,-1.55 9.02,-2.63 10.35,-3.3l9.23 24.1c-0.33,0.33 -1.7,0.98 -4.14,1.94 -2.43,0.98 -5.71,2 -9.85,3.05 -4.13,1.06 -9.05,2.03 -14.72,2.92 -5.68,0.89 -12,1.34 -18.98,1.34 -9.75,0 -18.71,-1.31 -26.89,-3.9 -8.2,-2.6 -15.34,-6.57 -21.42,-11.92 -6.09,-5.36 -10.83,-12.08 -14.24,-20.2 -3.42,-8.11 -5.12,-17.69 -5.12,-28.71 0,-10.23 1.58,-19.48 4.76,-27.75 3.15,-8.28 7.6,-15.38 13.38,-21.3 5.76,-5.91 12.68,-10.5 20.8,-13.75 8.11,-3.25 17.12,-4.87 27.01,-4.87 9.25,0 17.4,1.26 24.48,3.77 7.05,2.52 12.96,5.96 17.76,10.35 4.78,4.38 8.39,9.49 10.81,15.33 2.44,5.83 3.67,12 3.67,18.5zm-32.12 -2.92l0 0c0,-2.27 -0.45,-4.71 -1.34,-7.31 -0.89,-2.59 -2.32,-4.95 -4.26,-7.05 -1.95,-2.11 -4.54,-3.87 -7.79,-5.24 -3.25,-1.38 -7.22,-2.08 -11.93,-2.08 -5.2,0 -9.73,1.15 -13.62,3.42 -3.9,2.27 -7.15,5.12 -9.77,8.51 -2.57,3.42 -4.5,7.15 -5.82,11.21 -1.31,4.06 -1.95,7.94 -1.95,11.67l43.59 0c5.34,0 8.82,-1.1 10.45,-3.28 1.62,-2.18 2.44,-5.48 2.44,-9.85z"/>
   <path class="fil0" d="M704.02 240.08l0 -69.86c0,-20.11 -9.33,-30.18 -27.97,-30.18 -6.82,0 -12.1,0.58 -15.83,1.71 -3.75,1.14 -6.41,2.1 -8.01,2.93l0 95.4 -34.1 0 0 -116.58c0.66,-0.33 2.6,-1.14 5.85,-2.43 3.23,-1.31 7.43,-2.65 12.53,-4.02 5.13,-1.38 11.11,-2.6 18,-3.66 6.92,-1.05 14.41,-1.59 22.53,-1.59 9.09,0 17.41,1.16 24.94,3.43 7.55,2.27 14,5.58 19.34,9.97 5.37,4.37 9.51,9.76 12.4,16.19 2.96,6.4 4.4,13.74 4.4,22.01l0 76.68 -34.08 0z"/>
   <path class="fil0" d="M976 235.69c-0.48,0.17 -2.29,0.5 -5.35,0.98 -3.09,0.48 -7.18,0.96 -12.29,1.46 -5.12,0.5 -11.16,0.93 -18.12,1.32 -7,0.42 -14.63,0.62 -22.88,0.62 -12.02,0 -21.89,-1.01 -29.57,-3.04 -7.71,-2.01 -13.86,-4.82 -18.38,-8.39 -4.54,-3.58 -7.67,-7.75 -9.37,-12.53 -1.71,-4.8 -2.56,-10.03 -2.56,-15.72 0,-6.96 1.06,-13.05 3.18,-18.24 2.08,-5.19 5.52,-9.44 10.19,-12.77 4.73,-3.32 10.75,-5.8 18.16,-7.43 7.37,-1.63 16.33,-2.44 26.88,-2.44 7.31,0 13.4,0.21 18.25,0.62 4.88,0.39 7.73,0.69 8.52,0.84l0 -3.89c0,-7.63 -2.59,-13.47 -7.79,-17.51 -5.19,-4.06 -13.22,-6.09 -24.1,-6.09 -4.86,0 -9.16,0.43 -12.89,1.34 -3.72,0.89 -6.93,1.94 -9.61,3.15 -2.7,1.22 -4.94,2.44 -6.81,3.64 -1.89,1.24 -3.39,2.17 -4.51,2.82 -2.27,-1.31 -4.29,-3.37 -6.1,-6.21 -1.77,-2.83 -2.66,-6.03 -2.66,-9.61 0,-3.57 1.13,-6.62 3.42,-9.14 2.25,-2.51 5.31,-4.52 9.11,-6.09 3.82,-1.53 8.18,-2.61 13.15,-3.26 4.94,-0.66 10.01,-0.99 15.2,-0.99 9.9,0 18.95,0.86 27.15,2.55 8.18,1.7 15.23,4.64 21.16,8.77 5.93,4.14 10.5,9.66 13.75,16.55 3.24,6.9 4.87,15.53 4.87,25.93l0 72.76zm-33.59 -53.54l0 0c-0.49,-0.17 -1.47,-0.33 -2.91,-0.5 -1.46,-0.14 -3.23,-0.31 -5.36,-0.46 -2.12,-0.17 -4.41,-0.29 -6.93,-0.38 -2.51,-0.07 -5.07,-0.12 -7.67,-0.12 -6,0 -10.87,0.5 -14.6,1.46 -3.74,0.98 -6.62,2.32 -8.64,4.01 -2.02,1.7 -3.41,3.74 -4.13,6.08 -0.74,2.36 -1.1,4.83 -1.1,7.43 0,2.29 0.33,4.47 0.96,6.57 0.66,2.11 1.98,4.02 4.02,5.72 2.05,1.7 4.87,3.08 8.52,4.15 3.64,1.04 8.38,1.56 14.25,1.56 6.15,0 11.28,-0.27 15.32,-0.84 4.07,-0.57 6.8,-1.02 8.27,-1.34l0 -33.34z"/>
   <path class="fil1" d="M823.93 173.88c-6.82,6.36 -15.97,10.32 -26.06,10.32 -10.07,0 -19.22,-3.96 -26.06,-10.32 -7.48,6.98 -12.19,16.9 -12.19,27.94 0,21.13 17.14,38.25 38.25,38.25 21.11,0 38.24,-17.12 38.24,-38.25 0,-11.04 -4.7,-20.96 -12.18,-27.94z"/>
   <path class="fil2" d="M823.93 173.88c7.48,-6.98 12.18,-16.9 12.18,-27.94 0,-21.13 -17.13,-38.25 -38.24,-38.25 -21.11,0 -38.25,17.12 -38.25,38.25 0,11.04 4.71,20.96 12.19,27.94 6.84,-6.38 15.99,-10.3 26.06,-10.3 10.09,0 19.24,3.92 26.06,10.3z"/>
   <path class="fil2" d="M823.93 173.88c-6.82,-6.38 -15.97,-10.3 -26.06,-10.3 -10.07,0 -19.22,3.92 -26.06,10.3 6.83,6.35 15.95,10.3 25.99,10.32l0.14 0c10.06,-0.02 19.18,-3.97 25.99,-10.32l0 0z"/>
   <path class="fil3" d="M823.93 173.88c-6.82,-6.38 -15.97,-10.3 -26.06,-10.3 -10.07,0 -19.22,3.92 -26.06,10.3 6.84,6.36 15.99,10.32 26.06,10.32 10.09,0 19.24,-3.96 26.06,-10.32z"/>
   <path class="fil4" d="M836.11 38.25c0,21.13 -17.12,38.24 -38.23,38.24 -21.12,0 -38.26,-17.11 -38.26,-38.24 0,-21.13 17.14,-38.25 38.26,-38.25 21.11,0 38.23,17.12 38.23,38.25z"/>
  </g>
 </g>
</svg>
