<svg width="98" height="99" viewBox="0 0 98 99" fill="none" xmlns="http://www.w3.org/2000/svg">
<circle cx="48.83" cy="49.3256" r="48.83" fill="#FB8C00"/>
<path fill-rule="evenodd" clip-rule="evenodd" d="M37.0696 70.3389C37.9422 70.8768 37.5048 72.1758 36.4886 72.0419C23.235 70.2961 14.6484 65.2035 14.6484 54.8274C14.6484 41.5503 23.9906 40.0717 28.8091 40.9906C28.4098 34.3816 32.0277 21.2281 48.8294 21.0041C65.6312 21.2281 69.2491 34.3816 68.8497 40.9906C73.6683 40.0717 83.0104 41.5503 83.0104 54.8274C83.0104 65.2035 74.4239 70.2961 61.1703 72.0419C60.1541 72.1758 59.7167 70.8768 60.5892 70.3389L65.906 67.0613C66.5204 66.6826 66.8965 65.9992 66.8965 65.2615V50.6155C66.8965 48.9864 65.1725 47.9792 63.8156 48.8157L51.0923 56.659C50.4779 57.0377 50.1018 57.7212 50.1018 58.4588V71.4852C50.1018 72.19 49.5342 72.7639 48.8294 72.7639C48.1247 72.7639 47.5571 72.19 47.5571 71.4852V58.4588C47.5571 57.7212 47.181 57.0377 46.5666 56.659L33.8433 48.8157C32.4864 47.9792 30.7623 48.9864 30.7623 50.6155V65.2615C30.7623 65.9992 31.1384 66.6826 31.7528 67.0613L37.0696 70.3389ZM34.8951 46.5617C33.5231 45.7523 33.5312 43.7107 34.9096 42.913L47.8324 35.4336C48.4516 35.0752 49.2073 35.0752 49.8265 35.4336L62.7493 42.913C64.1277 43.7107 64.1358 45.7523 62.7637 46.5617L49.841 54.1848C49.2143 54.5545 48.4445 54.5545 47.8179 54.1848L34.8951 46.5617Z" fill="white"/>
</svg>
