<svg width="268" height="99" viewBox="0 0 268 99" fill="none" xmlns="http://www.w3.org/2000/svg">
<circle cx="48.83" cy="49.3256" r="48.83" fill="#FB8C00"/>
<path fill-rule="evenodd" clip-rule="evenodd" d="M37.0696 70.3389C37.9422 70.8768 37.5048 72.1758 36.4886 72.0419C23.235 70.2961 14.6484 65.2035 14.6484 54.8274C14.6484 41.5503 23.9906 40.0717 28.8091 40.9906C28.4098 34.3816 32.0277 21.2281 48.8294 21.0041C65.6312 21.2281 69.2491 34.3816 68.8497 40.9906C73.6683 40.0717 83.0104 41.5503 83.0104 54.8274C83.0104 65.2035 74.4239 70.2961 61.1703 72.0419C60.1541 72.1758 59.7167 70.8768 60.5892 70.3389L65.906 67.0613C66.5204 66.6826 66.8965 65.9992 66.8965 65.2615V50.6155C66.8965 48.9864 65.1725 47.9792 63.8156 48.8157L51.0923 56.659C50.4779 57.0377 50.1018 57.7212 50.1018 58.4588V71.4852C50.1018 72.19 49.5342 72.7639 48.8294 72.7639C48.1247 72.7639 47.5571 72.19 47.5571 71.4852V58.4588C47.5571 57.7212 47.181 57.0377 46.5666 56.659L33.8433 48.8157C32.4864 47.9792 30.7623 48.9864 30.7623 50.6155V65.2615C30.7623 65.9992 31.1384 66.6826 31.7528 67.0613L37.0696 70.3389ZM34.8951 46.5617C33.5231 45.7523 33.5312 43.7107 34.9096 42.913L47.8324 35.4336C48.4516 35.0752 49.2073 35.0752 49.8265 35.4336L62.7493 42.913C64.1277 43.7107 64.1358 45.7523 62.7637 46.5617L49.841 54.1848C49.2143 54.5545 48.4445 54.5545 47.8179 54.1848L34.8951 46.5617Z" fill="white"/>
<path d="M131.485 20.3343C130.272 20.3343 129.236 20.7893 128.376 21.6993C127.567 22.5588 127.138 23.6457 127.087 24.9602C127.138 26.123 127.567 27.1341 128.376 27.9935C129.236 28.8024 130.272 29.2069 131.485 29.2069H136.642C138.513 29.2069 140.307 29.586 142.026 30.3444C143.796 31.1027 145.363 32.1644 146.728 33.5294C148.093 34.8438 149.18 36.411 149.989 38.231C150.798 40.0005 151.202 41.8963 151.202 43.9186C151.202 45.8902 150.823 47.7608 150.065 49.5302C149.306 51.2997 148.27 52.8416 146.956 54.1561C145.641 55.4705 144.099 56.5322 142.33 57.3411C140.56 58.0994 138.664 58.5039 136.642 58.5544H123.144C121.627 58.5544 120.389 58.0742 119.428 57.1136C118.467 56.1025 117.987 54.8639 117.987 53.3978C117.987 52.0327 118.467 50.8447 119.428 49.8336C120.439 48.8225 121.678 48.3169 123.144 48.3169H136.642C137.805 48.3169 138.841 47.8872 139.751 47.0277C140.661 46.1683 141.116 45.1319 141.116 43.9186C141.116 42.6547 140.661 41.6183 139.751 40.8094C138.892 39.9499 137.881 39.4949 136.718 39.4444H131.485C129.564 39.3938 127.719 38.9894 125.95 38.231C124.18 37.4727 122.613 36.4616 121.248 35.1977C119.934 33.8833 118.872 32.3413 118.063 30.5719C117.254 28.8024 116.85 26.8813 116.85 24.8085C116.85 22.9379 117.229 21.1179 117.987 19.3485C118.745 17.579 119.782 16.0118 121.096 14.6468C122.461 13.2818 124.029 12.1949 125.798 11.386C127.567 10.5265 129.463 10.0968 131.485 10.0968H144.984C146.349 10.0968 147.512 10.6024 148.472 11.6135C149.433 12.574 149.964 13.7874 150.065 15.2535C150.065 16.7196 149.584 17.9329 148.624 18.8935C147.663 19.8541 146.45 20.3343 144.984 20.3343H131.485Z" fill="white"/>
<path d="M185.477 25.1118C185.477 25.1118 185.502 25.1624 185.553 25.2635V53.4736C185.553 54.8891 185.047 56.1025 184.036 57.1136C183.076 58.0742 181.888 58.5544 180.472 58.5544C179.006 58.5544 177.767 58.0742 176.756 57.1136C175.796 56.1025 175.315 54.8891 175.315 53.4736V44.6011H165.381V53.4736C165.381 54.8891 164.876 56.1025 163.865 57.1136C162.854 58.0742 161.615 58.5544 160.149 58.5544C158.733 58.5544 157.545 58.0742 156.585 57.1136C155.624 56.1025 155.144 54.8891 155.144 53.4736V25.1118C155.144 23.0391 155.548 21.0927 156.357 19.2727C157.166 17.4527 158.253 15.8602 159.618 14.4951C160.983 13.1301 162.575 12.0685 164.395 11.3101C166.266 10.5012 168.238 10.0968 170.31 10.0968C172.383 10.0968 174.33 10.5012 176.15 11.3101C178.02 12.0685 179.638 13.1301 181.003 14.4951C182.368 15.8602 183.455 17.4527 184.264 19.2727C185.073 21.0927 185.477 23.0391 185.477 25.1118ZM175.315 25.3393C175.315 23.9743 174.81 22.8116 173.799 21.851C172.838 20.8399 171.675 20.3343 170.31 20.3343C168.945 20.3343 167.783 20.8399 166.822 21.851C165.862 22.8116 165.381 23.9743 165.381 25.3393V34.3635H175.315V25.3393Z" fill="white"/>
<path d="M220.135 25.1118C220.135 25.1118 220.161 25.1624 220.211 25.2635V53.4736C220.211 54.8891 219.706 56.1025 218.695 57.1136C217.734 58.0742 216.546 58.5544 215.13 58.5544C213.664 58.5544 212.426 58.0742 211.415 57.1136C210.454 56.1025 209.974 54.8891 209.974 53.4736V44.6011H200.04V53.4736C200.04 54.8891 199.534 56.1025 198.523 57.1136C197.512 58.0742 196.273 58.5544 194.807 58.5544C193.392 58.5544 192.203 58.0742 191.243 57.1136C190.282 56.1025 189.802 54.8891 189.802 53.4736V25.1118C189.802 23.0391 190.206 21.0927 191.015 19.2727C191.824 17.4527 192.911 15.8602 194.276 14.4951C195.641 13.1301 197.234 12.0685 199.054 11.3101C200.924 10.5012 202.896 10.0968 204.969 10.0968C207.042 10.0968 208.988 10.5012 210.808 11.3101C212.678 12.0685 214.296 13.1301 215.661 14.4951C217.026 15.8602 218.113 17.4527 218.922 19.2727C219.731 21.0927 220.135 23.0391 220.135 25.1118ZM209.974 25.3393C209.974 23.9743 209.468 22.8116 208.457 21.851C207.497 20.8399 206.334 20.3343 204.969 20.3343C203.604 20.3343 202.441 20.8399 201.48 21.851C200.52 22.8116 200.04 23.9743 200.04 25.3393V34.3635H209.974V25.3393Z" fill="white"/>
<path d="M238.793 20.3343C237.58 20.3343 236.543 20.7893 235.684 21.6993C234.875 22.5588 234.445 23.6457 234.395 24.9602C234.445 26.123 234.875 27.1341 235.684 27.9935C236.543 28.8024 237.58 29.2069 238.793 29.2069H243.95C245.82 29.2069 247.615 29.586 249.334 30.3444C251.103 31.1027 252.67 32.1644 254.035 33.5294C255.4 34.8438 256.487 36.411 257.296 38.231C258.105 40.0005 258.51 41.8963 258.51 43.9186C258.51 45.8902 258.13 47.7608 257.372 49.5302C256.614 51.2997 255.577 52.8416 254.263 54.1561C252.948 55.4705 251.407 56.5322 249.637 57.3411C247.868 58.0994 245.972 58.5039 243.95 58.5544H230.451C228.935 58.5544 227.696 58.0742 226.735 57.1136C225.775 56.1025 225.295 54.8639 225.295 53.3978C225.295 52.0327 225.775 50.8447 226.735 49.8336C227.746 48.8225 228.985 48.3169 230.451 48.3169H243.95C245.112 48.3169 246.149 47.8872 247.059 47.0277C247.969 46.1683 248.424 45.1319 248.424 43.9186C248.424 42.6547 247.969 41.6183 247.059 40.8094C246.199 39.9499 245.188 39.4949 244.025 39.4444H238.793C236.872 39.3938 235.026 38.9894 233.257 38.231C231.488 37.4727 229.92 36.4616 228.555 35.1977C227.241 33.8833 226.179 32.3413 225.37 30.5719C224.561 28.8024 224.157 26.8813 224.157 24.8085C224.157 22.9379 224.536 21.1179 225.295 19.3485C226.053 17.579 227.089 16.0118 228.404 14.6468C229.769 13.2818 231.336 12.1949 233.105 11.386C234.875 10.5265 236.771 10.0968 238.793 10.0968H252.291C253.656 10.0968 254.819 10.6024 255.78 11.6135C256.74 12.574 257.271 13.7874 257.372 15.2535C257.372 16.7196 256.892 17.9329 255.931 18.8935C254.971 19.8541 253.757 20.3343 252.291 20.3343H238.793Z" fill="white"/>
<path d="M122.072 80.3305H119.195V79.1691H122.072C122.629 79.1691 123.081 79.0803 123.426 78.9028C123.771 78.7252 124.023 78.4786 124.18 78.163C124.343 77.8474 124.425 77.4874 124.425 77.083C124.425 76.7131 124.343 76.3654 124.18 76.04C124.023 75.7145 123.771 75.4531 123.426 75.2558C123.081 75.0536 122.629 74.9525 122.072 74.9525H119.527V84.5544H118.1V73.7837H122.072C122.886 73.7837 123.574 73.9243 124.136 74.2054C124.698 74.4865 125.125 74.8761 125.416 75.3742C125.707 75.8673 125.852 76.432 125.852 77.0682C125.852 77.7586 125.707 78.348 125.416 78.8362C125.125 79.3244 124.698 79.6968 124.136 79.9532C123.574 80.2047 122.886 80.3305 122.072 80.3305ZM126.984 80.6412V80.471C126.984 79.894 127.068 79.3589 127.236 78.8658C127.403 78.3677 127.645 77.9362 127.961 77.5712C128.276 77.2014 128.658 76.9153 129.107 76.7131C129.556 76.506 130.059 76.4024 130.616 76.4024C131.178 76.4024 131.684 76.506 132.133 76.7131C132.586 76.9153 132.971 77.2014 133.287 77.5712C133.607 77.9362 133.851 78.3677 134.019 78.8658C134.187 79.3589 134.271 79.894 134.271 80.471V80.6412C134.271 81.2182 134.187 81.7533 134.019 82.2464C133.851 82.7396 133.607 83.1711 133.287 83.541C132.971 83.9059 132.589 84.192 132.14 84.3991C131.696 84.6013 131.193 84.7024 130.631 84.7024C130.069 84.7024 129.563 84.6013 129.115 84.3991C128.666 84.192 128.281 83.9059 127.961 83.541C127.645 83.1711 127.403 82.7396 127.236 82.2464C127.068 81.7533 126.984 81.2182 126.984 80.6412ZM128.353 80.471V80.6412C128.353 81.0406 128.4 81.4179 128.493 81.773C128.587 82.1231 128.727 82.4338 128.915 82.7051C129.107 82.9763 129.346 83.1908 129.632 83.3486C129.918 83.5015 130.251 83.578 130.631 83.578C131.006 83.578 131.334 83.5015 131.615 83.3486C131.901 83.1908 132.138 82.9763 132.325 82.7051C132.512 82.4338 132.653 82.1231 132.747 81.773C132.845 81.4179 132.895 81.0406 132.895 80.6412V80.471C132.895 80.0765 132.845 79.7042 132.747 79.354C132.653 78.9989 132.51 78.6858 132.318 78.4145C132.13 78.1384 131.894 77.9214 131.608 77.7636C131.326 77.6057 130.996 77.5268 130.616 77.5268C130.241 77.5268 129.911 77.6057 129.625 77.7636C129.344 77.9214 129.107 78.1384 128.915 78.4145C128.727 78.6858 128.587 78.9989 128.493 79.354C128.4 79.7042 128.353 80.0765 128.353 80.471ZM138.014 83.1341L140.07 76.5504H140.973L140.795 77.8597L138.702 84.5544H137.821L138.014 83.1341ZM136.63 76.5504L138.384 83.2081L138.509 84.5544H137.585L135.262 76.5504H136.63ZM142.94 83.1563L144.612 76.5504H145.973L143.651 84.5544H142.733L142.94 83.1563ZM141.172 76.5504L143.185 83.0232L143.414 84.5544H142.541L140.388 77.8449L140.211 76.5504H141.172ZM150.7 84.7024C150.143 84.7024 149.638 84.6087 149.184 84.4213C148.735 84.2289 148.348 83.9602 148.023 83.615C147.702 83.2697 147.455 82.8604 147.283 82.387C147.11 81.9135 147.024 81.3957 147.024 80.8335V80.5228C147.024 79.8718 147.12 79.2924 147.312 78.7844C147.505 78.2715 147.766 77.8375 148.096 77.4825C148.427 77.1274 148.802 76.8586 149.221 76.6761C149.64 76.4937 150.074 76.4024 150.523 76.4024C151.095 76.4024 151.588 76.5011 152.002 76.6983C152.422 76.8956 152.764 77.1718 153.031 77.5268C153.297 77.877 153.494 78.2912 153.622 78.7696C153.751 79.2431 153.815 79.7609 153.815 80.3231V80.9371H147.838V79.8201H152.446V79.7165C152.426 79.3614 152.352 79.0162 152.224 78.6808C152.101 78.3455 151.904 78.0693 151.632 77.8523C151.361 77.6353 150.991 77.5268 150.523 77.5268C150.212 77.5268 149.926 77.5934 149.665 77.7266C149.403 77.8548 149.179 78.0471 148.992 78.3036C148.804 78.56 148.659 78.8732 148.555 79.2431C148.452 79.6129 148.4 80.0395 148.4 80.5228V80.8335C148.4 81.2132 148.452 81.5708 148.555 81.9061C148.664 82.2366 148.819 82.5275 149.021 82.779C149.228 83.0306 149.477 83.2278 149.768 83.3708C150.064 83.5139 150.4 83.5854 150.774 83.5854C151.258 83.5854 151.667 83.4867 152.002 83.2895C152.338 83.0922 152.631 82.8284 152.883 82.4979L153.711 83.1563C153.539 83.4177 153.319 83.6667 153.053 83.9035C152.786 84.1402 152.459 84.3325 152.069 84.4805C151.684 84.6284 151.228 84.7024 150.7 84.7024ZM156.781 77.8079V84.5544H155.413V76.5504H156.744L156.781 77.8079ZM159.281 76.506L159.274 77.7784C159.161 77.7537 159.052 77.7389 158.949 77.734C158.85 77.7241 158.736 77.7192 158.608 77.7192C158.293 77.7192 158.014 77.7685 157.772 77.8671C157.531 77.9658 157.326 78.1038 157.158 78.2814C156.991 78.4589 156.858 78.671 156.759 78.9176C156.665 79.1592 156.604 79.4255 156.574 79.7165L156.189 79.9384C156.189 79.4551 156.236 79.0014 156.33 78.5773C156.428 78.1532 156.579 77.7784 156.781 77.4529C156.983 77.1224 157.24 76.866 157.55 76.6835C157.866 76.4961 158.241 76.4024 158.675 76.4024C158.773 76.4024 158.887 76.4148 159.015 76.4394C159.143 76.4591 159.232 76.4813 159.281 76.506ZM163.72 84.7024C163.163 84.7024 162.657 84.6087 162.203 84.4213C161.755 84.2289 161.368 83.9602 161.042 83.615C160.721 83.2697 160.475 82.8604 160.302 82.387C160.13 81.9135 160.043 81.3957 160.043 80.8335V80.5228C160.043 79.8718 160.14 79.2924 160.332 78.7844C160.524 78.2715 160.786 77.8375 161.116 77.4825C161.446 77.1274 161.821 76.8586 162.24 76.6761C162.66 76.4937 163.094 76.4024 163.542 76.4024C164.114 76.4024 164.608 76.5011 165.022 76.6983C165.441 76.8956 165.784 77.1718 166.05 77.5268C166.316 77.877 166.514 78.2912 166.642 78.7696C166.77 79.2431 166.834 79.7609 166.834 80.3231V80.9371H160.857V79.8201H165.466V79.7165C165.446 79.3614 165.372 79.0162 165.244 78.6808C165.121 78.3455 164.923 78.0693 164.652 77.8523C164.381 77.6353 164.011 77.5268 163.542 77.5268C163.232 77.5268 162.946 77.5934 162.684 77.7266C162.423 77.8548 162.199 78.0471 162.011 78.3036C161.824 78.56 161.678 78.8732 161.575 79.2431C161.471 79.6129 161.419 80.0395 161.419 80.5228V80.8335C161.419 81.2132 161.471 81.5708 161.575 81.9061C161.683 82.2366 161.839 82.5275 162.041 82.779C162.248 83.0306 162.497 83.2278 162.788 83.3708C163.084 83.5139 163.419 83.5854 163.794 83.5854C164.277 83.5854 164.687 83.4867 165.022 83.2895C165.357 83.0922 165.651 82.8284 165.902 82.4979L166.731 83.1563C166.558 83.4177 166.339 83.6667 166.072 83.9035C165.806 84.1402 165.478 84.3325 165.088 84.4805C164.704 84.6284 164.248 84.7024 163.72 84.7024ZM173.477 83.001V73.1919H174.853V84.5544H173.596L173.477 83.001ZM168.092 80.6412V80.4858C168.092 79.8743 168.166 79.3195 168.314 78.8214C168.467 78.3184 168.681 77.8869 168.957 77.5268C169.238 77.1668 169.571 76.8907 169.956 76.6983C170.346 76.5011 170.78 76.4024 171.258 76.4024C171.761 76.4024 172.2 76.4912 172.575 76.6687C172.954 76.8413 173.275 77.0953 173.536 77.4307C173.803 77.7611 174.012 78.1606 174.165 78.6291C174.318 79.0976 174.424 79.6277 174.483 80.2195V80.9001C174.429 81.4869 174.323 82.0146 174.165 82.4831C174.012 82.9516 173.803 83.3511 173.536 83.6815C173.275 84.0119 172.954 84.2659 172.575 84.4435C172.195 84.6161 171.751 84.7024 171.243 84.7024C170.775 84.7024 170.346 84.6013 169.956 84.3991C169.571 84.1969 169.238 83.9133 168.957 83.5484C168.681 83.1834 168.467 82.7544 168.314 82.2612C168.166 81.7631 168.092 81.2231 168.092 80.6412ZM169.468 80.4858V80.6412C169.468 81.0406 169.507 81.4154 169.586 81.7656C169.67 82.1157 169.798 82.424 169.971 82.6903C170.143 82.9566 170.363 83.1662 170.629 83.3191C170.895 83.467 171.214 83.541 171.583 83.541C172.037 83.541 172.409 83.4448 172.7 83.2525C172.996 83.0601 173.233 82.8062 173.411 82.4905C173.588 82.1749 173.726 81.8322 173.825 81.4623V79.6795C173.766 79.4083 173.679 79.1469 173.566 78.8954C173.457 78.6389 173.314 78.4121 173.137 78.2148C172.964 78.0126 172.75 77.8523 172.493 77.734C172.242 77.6156 171.943 77.5564 171.598 77.5564C171.223 77.5564 170.9 77.6353 170.629 77.7931C170.363 77.946 170.143 78.1581 169.971 78.4293C169.798 78.6956 169.67 79.0063 169.586 79.3614C169.507 79.7116 169.468 80.0864 169.468 80.4858ZM180.734 73.1919H182.11V83.001L181.992 84.5544H180.734V73.1919ZM187.518 80.4858V80.6412C187.518 81.2231 187.449 81.7631 187.31 82.2612C187.172 82.7544 186.97 83.1834 186.704 83.5484C186.438 83.9133 186.112 84.1969 185.727 84.3991C185.343 84.6013 184.901 84.7024 184.403 84.7024C183.895 84.7024 183.449 84.6161 183.064 84.4435C182.685 84.2659 182.364 84.0119 182.103 83.6815C181.841 83.3511 181.632 82.9516 181.474 82.4831C181.321 82.0146 181.215 81.4869 181.156 80.9001V80.2195C181.215 79.6277 181.321 79.0976 181.474 78.6291C181.632 78.1606 181.841 77.7611 182.103 77.4307C182.364 77.0953 182.685 76.8413 183.064 76.6687C183.444 76.4912 183.885 76.4024 184.388 76.4024C184.891 76.4024 185.338 76.5011 185.727 76.6983C186.117 76.8907 186.442 77.1668 186.704 77.5268C186.97 77.8869 187.172 78.3184 187.31 78.8214C187.449 79.3195 187.518 79.8743 187.518 80.4858ZM186.142 80.6412V80.4858C186.142 80.0864 186.105 79.7116 186.031 79.3614C185.957 79.0063 185.838 78.6956 185.676 78.4293C185.513 78.1581 185.298 77.946 185.032 77.7931C184.766 77.6353 184.438 77.5564 184.048 77.5564C183.703 77.5564 183.402 77.6156 183.146 77.734C182.894 77.8523 182.68 78.0126 182.502 78.2148C182.325 78.4121 182.179 78.6389 182.066 78.8954C181.957 79.1469 181.876 79.4083 181.822 79.6795V81.4623C181.9 81.8075 182.029 82.1404 182.206 82.4609C182.389 82.7766 182.63 83.0355 182.931 83.2377C183.237 83.4399 183.614 83.541 184.063 83.541C184.433 83.541 184.748 83.467 185.01 83.3191C185.276 83.1662 185.491 82.9566 185.653 82.6903C185.821 82.424 185.944 82.1157 186.023 81.7656C186.102 81.4154 186.142 81.0406 186.142 80.6412ZM191.409 83.7259L193.635 76.5504H195.1L191.889 85.7898C191.815 85.9871 191.717 86.1991 191.594 86.426C191.475 86.6578 191.322 86.8772 191.135 87.0844C190.948 87.2915 190.721 87.4592 190.454 87.5874C190.193 87.7205 189.88 87.7871 189.515 87.7871C189.406 87.7871 189.268 87.7723 189.101 87.7427C188.933 87.7131 188.815 87.6885 188.746 87.6688L188.738 86.5591C188.778 86.5641 188.839 86.569 188.923 86.5739C189.012 86.5838 189.073 86.5887 189.108 86.5887C189.419 86.5887 189.683 86.5468 189.9 86.463C190.117 86.3841 190.299 86.2484 190.447 86.0561C190.6 85.8687 190.731 85.6098 190.839 85.2794L191.409 83.7259ZM189.774 76.5504L191.852 82.7642L192.208 84.2067L191.224 84.7098L188.279 76.5504H189.774Z" fill="white"/>
<path d="M229.017 83.3675C229.267 83.6205 229.392 83.924 229.392 84.2781C229.392 84.6196 229.267 84.9168 229.017 85.1697C228.767 85.3974 228.473 85.5175 228.135 85.5302C227.798 85.5555 227.498 85.4353 227.235 85.1697L224.403 82.3241V84.2591C224.403 84.588 224.278 84.8852 224.028 85.1508C223.778 85.4037 223.484 85.5302 223.146 85.5302C222.821 85.5302 222.527 85.41 222.265 85.1697C222.002 84.9168 221.871 84.6133 221.871 84.2591V74.6789C221.871 74.3501 221.996 74.0592 222.246 73.8063C222.496 73.5407 222.796 73.4079 223.146 73.4079C223.496 73.4079 223.79 73.5344 224.028 73.7873C224.278 74.0276 224.403 74.3248 224.403 74.6789V79.4406L227.235 76.576C227.485 76.3231 227.779 76.2029 228.116 76.2156C228.454 76.2156 228.754 76.3357 229.017 76.576C229.267 76.8289 229.392 77.1325 229.392 77.4866C229.392 77.8281 229.267 78.1253 229.017 78.3782L226.541 80.8824L229.017 83.3675Z" fill="#D22B6C"/>
<path d="M234.08 76.3483C234.68 76.3483 235.255 76.4748 235.806 76.7278C236.356 76.9807 236.837 77.3222 237.25 77.7522C237.675 78.1695 238.012 78.6565 238.263 79.2129C238.513 79.7568 238.638 80.3322 238.638 80.9393C238.638 81.2681 238.513 81.559 238.263 81.8119C238.025 82.0649 237.725 82.185 237.362 82.1724H232.373C232.786 82.7668 233.355 83.064 234.08 83.064C234.28 83.064 234.449 83.045 234.587 83.0071C234.724 82.9691 234.843 82.9249 234.943 82.8743C235.055 82.8237 235.162 82.7794 235.262 82.7415C235.374 82.7035 235.499 82.6846 235.637 82.6846C235.899 82.6972 236.124 82.7731 236.312 82.9122C236.512 83.0513 236.656 83.2284 236.743 83.4434C236.843 83.6458 236.875 83.8671 236.837 84.1074C236.812 84.3477 236.706 84.569 236.518 84.7714C236.181 85.0496 235.806 85.2456 235.393 85.3595C234.98 85.4606 234.543 85.5175 234.08 85.5302C233.48 85.5555 232.905 85.448 232.355 85.2077C231.804 84.9547 231.317 84.6196 230.892 84.2022C230.479 83.7722 230.148 83.2727 229.898 82.7035C229.66 82.1344 229.541 81.5463 229.541 80.9393C229.541 80.3449 229.66 79.7694 229.898 79.2129C230.148 78.6565 230.479 78.1695 230.892 77.7522C231.304 77.3222 231.786 76.9807 232.336 76.7278C232.886 76.4748 233.467 76.3483 234.08 76.3483ZM235.787 79.6872C235.574 79.4216 235.324 79.2129 235.037 79.0612C234.749 78.8968 234.43 78.8145 234.08 78.8145C233.718 78.8145 233.392 78.8968 233.105 79.0612C232.83 79.2129 232.586 79.4216 232.373 79.6872H235.787Z" fill="#D22B6C"/>
<path d="M240.709 73.4648C241.047 73.4648 241.328 73.5849 241.553 73.8252C241.791 74.0655 241.922 74.3627 241.947 74.7169V82.2103C241.947 82.4633 242.028 82.6783 242.191 82.8553C242.353 83.0324 242.559 83.1209 242.81 83.1209C243.135 83.1209 243.416 83.2347 243.654 83.4624C243.904 83.69 244.035 83.9746 244.047 84.3161C244.047 84.6196 243.941 84.8915 243.729 85.1318C243.529 85.3595 243.266 85.4986 242.941 85.5492H242.678C242.241 85.5492 241.828 85.4606 241.44 85.2836C241.053 85.0939 240.709 84.8472 240.409 84.5437C240.121 84.2402 239.89 83.8861 239.715 83.4813C239.552 83.0766 239.471 82.653 239.471 82.2103V74.641C239.509 74.3248 239.64 74.0529 239.865 73.8252C240.09 73.5976 240.371 73.4774 240.709 73.4648Z" fill="#D22B6C"/>
<path d="M248.366 76.5191C248.979 76.5191 249.561 76.6392 250.111 76.8795C250.661 77.1198 251.142 77.4487 251.555 77.866C251.967 78.2834 252.293 78.7703 252.53 79.3268C252.78 79.8832 252.905 80.484 252.905 81.129C252.905 81.7613 252.786 82.3558 252.549 82.9122C252.311 83.4561 251.986 83.9366 251.574 84.354C251.173 84.7714 250.698 85.1002 250.148 85.3405C249.598 85.5808 249.004 85.7009 248.366 85.7009C247.741 85.7009 247.154 85.5871 246.603 85.3595C246.053 85.1318 245.572 84.8156 245.159 84.4109C244.747 83.9936 244.422 83.5066 244.184 82.9502C243.946 82.3937 243.828 81.7866 243.828 81.129C243.828 80.4966 243.94 79.9085 244.165 79.3647C244.403 78.8082 244.722 78.3276 245.122 77.9229C245.534 77.5056 246.016 77.1767 246.566 76.9364C247.129 76.6835 247.729 76.5444 248.366 76.5191ZM248.366 79.0043C248.079 79.0043 247.81 79.0612 247.56 79.175C247.31 79.2762 247.085 79.4216 246.885 79.6113C246.697 79.801 246.547 80.0287 246.435 80.2943C246.322 80.5472 246.266 80.8254 246.266 81.129C246.266 81.4199 246.322 81.6981 246.435 81.9637C246.547 82.2166 246.697 82.4443 246.885 82.6466C247.085 82.8363 247.31 82.9881 247.56 83.1019C247.81 83.2158 248.079 83.2727 248.366 83.2727C248.654 83.2727 248.923 83.2158 249.173 83.1019C249.435 82.9881 249.661 82.8363 249.848 82.6466C250.036 82.4443 250.186 82.2166 250.298 81.9637C250.411 81.6981 250.467 81.4199 250.467 81.129C250.442 80.5472 250.236 80.054 249.848 79.6493C249.461 79.2445 248.967 79.0295 248.366 79.0043Z" fill="#D22B6C"/>
<path d="M255.05 73.4648C255.388 73.4648 255.669 73.5849 255.894 73.8252C256.132 74.0655 256.263 74.3627 256.288 74.7169V82.2103C256.288 82.4633 256.369 82.6783 256.532 82.8553C256.694 83.0324 256.901 83.1209 257.151 83.1209C257.476 83.1209 257.757 83.2347 257.995 83.4624C258.245 83.69 258.376 83.9746 258.389 84.3161C258.389 84.6196 258.282 84.8915 258.07 85.1318C257.87 85.3595 257.607 85.4986 257.282 85.5492H257.02C256.582 85.5492 256.169 85.4606 255.782 85.2836C255.394 85.0939 255.05 84.8472 254.75 84.5437C254.463 84.2402 254.231 83.8861 254.056 83.4813C253.894 83.0766 253.812 82.653 253.812 82.2103V74.641C253.85 74.3248 253.981 74.0529 254.206 73.8252C254.431 73.5976 254.713 73.4774 255.05 73.4648Z" fill="#D22B6C"/>
<path d="M263.728 76.3673C264.291 76.4306 264.816 76.595 265.303 76.8606C265.803 77.1261 266.229 77.4676 266.579 77.885C266.941 78.2897 267.223 78.7576 267.423 79.2888C267.635 79.8073 267.741 80.3575 267.741 80.9393V84.2971C267.741 84.6386 267.616 84.9294 267.366 85.1697C267.116 85.41 266.835 85.5302 266.522 85.5302C266.085 85.5302 265.735 85.3278 265.472 84.9231C265.41 84.9484 265.353 84.98 265.303 85.018C265.253 85.0433 265.203 85.0686 265.153 85.0939C264.853 85.233 264.547 85.3405 264.234 85.4164C263.909 85.4922 263.565 85.5302 263.203 85.5302C262.265 85.5302 261.427 85.2772 260.689 84.7714C259.952 84.2528 259.402 83.5888 259.039 82.7794C258.914 82.4885 258.814 82.1913 258.739 81.8878C258.676 81.5843 258.645 81.2681 258.645 80.9393C258.645 80.6104 258.676 80.2943 258.739 79.9907C258.814 79.6872 258.914 79.39 259.039 79.0991C259.402 78.277 259.952 77.6131 260.689 77.1072C261.427 76.6013 262.265 76.3483 263.203 76.3483C263.303 76.3483 263.39 76.3483 263.465 76.3483C263.553 76.3483 263.64 76.3547 263.728 76.3673ZM263.184 83.064C263.472 83.064 263.74 83.0134 263.99 82.9122C264.253 82.7984 264.478 82.6466 264.666 82.4569C264.853 82.2672 265.003 82.0459 265.116 81.793C265.228 81.5274 265.285 81.2428 265.285 80.9393C265.285 80.661 265.228 80.3954 265.116 80.1425C265.003 79.8769 264.847 79.6493 264.647 79.4596C264.459 79.2572 264.234 79.0991 263.972 78.9853C263.722 78.8715 263.459 78.8145 263.184 78.8145C262.909 78.8145 262.646 78.8715 262.396 78.9853C262.146 79.0991 261.921 79.2572 261.721 79.4596C261.533 79.6493 261.383 79.8769 261.271 80.1425C261.158 80.3954 261.102 80.661 261.102 80.9393C261.102 81.2302 261.158 81.5084 261.271 81.774C261.396 82.0269 261.552 82.2483 261.74 82.438C261.94 82.6277 262.165 82.7794 262.415 82.8933C262.665 83.0071 262.921 83.064 263.184 83.064Z" fill="#D22B6C"/>
<path d="M209.308 85.3997C209.829 85.7665 210.28 86.4126 209.88 86.9116C208.833 88.2194 204.997 88.2172 204.575 86.9693C204.148 85.709 204.245 83.2837 204.422 82.0895C204.474 81.6696 204.969 81.6982 205.253 82.0083C206.072 82.8996 207.355 84.0244 209.308 85.3997Z" fill="#D22B6C"/>
<path d="M209.308 73.6342C209.829 73.2674 210.28 72.6213 209.88 72.1223C208.833 70.8145 204.997 70.8167 204.575 72.0646C204.148 73.3249 204.245 75.7502 204.422 76.9444C204.474 77.3643 204.969 77.3357 205.253 77.0256C206.072 76.1343 207.355 75.0095 209.308 73.6342Z" fill="#D22B6C"/>
<path d="M205.066 79.7676H205.065V79.2928C205.062 78.6372 205.946 77.1078 209.591 74.5501C214.944 70.7949 216.11 70.3633 217.046 72.1546C217.473 72.9706 216.876 73.7059 216.1 74.6626C215.172 75.806 213.988 77.2657 213.988 79.5571C213.99 81.8454 215.173 83.3037 216.1 84.4463C216.876 85.403 217.473 86.1383 217.046 86.9543C216.11 88.7456 214.944 88.3139 209.591 84.5587C205.852 81.9358 205.019 80.3942 205.066 79.7676Z" fill="#D22B6C"/>
</svg>
