<?xml version="1.0" standalone="no"?>
<!DOCTYPE svg PUBLIC "-//W3C//DTD SVG 20010904//EN"
 "http://www.w3.org/TR/2001/REC-SVG-20010904/DTD/svg10.dtd">
<svg version="1.0" xmlns="http://www.w3.org/2000/svg"
 width="501.000000pt" height="501.000000pt" viewBox="0 0 501.000000 501.000000"
 preserveAspectRatio="xMidYMid meet">
<metadata>
Created by potrace 1.14, written by Peter Selinger 2001-2017
</metadata>
<g transform="translate(0.000000,501.000000) scale(0.100000,-0.100000)"
fill="#000000" stroke="none">
<path d="M2348 4991 c-98 -32 -148 -69 -319 -238 l-165 -163 -394 -70 c-445
-79 -471 -88 -583 -190 -103 -95 -167 -225 -181 -370 -6 -51 1 -107 28 -265
l36 -200 -339 -340 c-204 -205 -349 -359 -366 -388 -45 -78 -65 -159 -65 -257
0 -108 24 -193 79 -276 25 -38 408 -427 1082 -1101 853 -851 1054 -1046 1097
-1068 75 -37 74 -27 -1 13 -51 26 -126 96 -439 409 l-378 378 -260 1477 c-143
812 -260 1483 -260 1490 0 10 311 69 1223 230 672 118 1225 213 1228 209 4 -3
127 -692 274 -1529 l268 -1524 -559 -558 c-471 -470 -568 -563 -619 -589 -33
-16 -56 -30 -52 -31 4 0 31 12 60 26 42 21 256 229 1096 1067 674 674 1057
1063 1082 1101 102 154 107 370 14 533 -18 31 -261 282 -682 704 l-655 656
-23 129 c-13 71 -31 149 -41 174 -56 142 -187 271 -325 320 -75 26 -182 42
-226 34 -33 -6 -39 -3 -101 59 -126 123 -228 167 -386 166 -59 0 -111 -6 -148
-18z m132 -541 c28 -28 27 -85 -2 -104 -20 -12 -695 -137 -740 -136 -27 0 -58
37 -58 68 0 55 16 60 387 127 192 35 358 63 371 64 12 0 31 -8 42 -19z"/>
<path d="M2360 3310 c-299 -33 -580 -233 -697 -498 -45 -102 -66 -248 -42
-293 8 -15 6 -33 -6 -69 -25 -75 -18 -103 28 -114 26 -7 37 -15 37 -28 0 -10
9 -27 20 -38 16 -16 18 -24 9 -38 -17 -28 -3 -93 22 -99 19 -5 19 -6 2 -25
-35 -39 -12 -171 33 -196 13 -7 11 -10 -14 -15 -38 -8 -44 -24 -31 -94 23
-122 83 -184 187 -191 80 -5 1372 210 1416 236 51 30 76 76 75 141 0 31 -6 81
-12 111 -11 51 -14 55 -43 58 -30 3 -31 5 -22 30 7 17 8 51 4 85 -6 45 -13 61
-36 80 -26 22 -27 26 -13 40 18 18 11 78 -12 97 -10 8 -11 18 -4 36 5 14 6 36
3 48 -4 19 -1 25 21 30 31 8 47 43 32 71 -5 11 -23 37 -40 58 -16 21 -27 40
-24 43 3 3 -1 29 -10 57 -87 297 -497 519 -883 477z m155 -133 c25 -19 10 -40
-24 -32 -32 8 -45 20 -37 34 10 15 38 14 61 -2z m155 -26 c0 -20 -35 -51 -57
-51 -22 0 -14 27 13 49 33 26 44 26 44 2z m-462 -7 c26 -18 29 -44 5 -44 -20
0 -53 28 -53 47 0 17 20 17 48 -3z m147 -45 c8 -24 -2 -69 -15 -69 -13 0 -23
38 -16 66 8 29 22 31 31 3z m-295 -79 c-14 -26 -46 -22 -42 5 2 11 13 28 25
39 22 18 22 18 25 -2 2 -12 -2 -30 -8 -42z"/>
<path d="M2368 23 c7 -3 16 -2 19 1 4 3 -2 6 -13 5 -11 0 -14 -3 -6 -6z"/>
<path d="M2618 23 c7 -3 16 -2 19 1 4 3 -2 6 -13 5 -11 0 -14 -3 -6 -6z"/>
<path d="M2413 13 c9 -2 23 -2 30 0 6 3 -1 5 -18 5 -16 0 -22 -2 -12 -5z"/>
<path d="M2563 13 c9 -2 23 -2 30 0 6 3 -1 5 -18 5 -16 0 -22 -2 -12 -5z"/>
</g>
</svg>
