<svg width="340" height="345" viewBox="0 0 340 345" fill="none" xmlns="http://www.w3.org/2000/svg">
<path d="M35.7174 90.3813C61.8223 47.0979 99.8037 10.5417 149.665 2.04324C199.98 -6.5326 250.711 12.5156 287.95 47.3901C324.414 81.539 342.463 130.182 339.73 180.04C336.964 230.483 314.106 277.76 273.658 308.078C231.413 339.742 177.57 353.216 126.469 339.889C73.2949 326.021 25.7986 290.144 7.0293 238.541C-11.0626 188.801 8.37829 135.711 35.7174 90.3813Z" fill="#E8F0FE"/>
<rect x="79.001" y="72.9998" width="174" height="224" rx="12" fill="#C8DAF2"/>
<rect x="59.9976" y="87.3741" width="173" height="223" rx="11.5" transform="rotate(-12.7682 59.9976 87.3741)" stroke="#0396D4"/>
<rect x="87.001" y="64.9998" width="174" height="224" rx="12" fill="white"/>
<rect x="97.001" y="109" width="154" height="170" rx="12" fill="#F2F3F4"/>
<rect x="127.001" y="43.9998" width="93" height="55" rx="8" fill="#0396D4"/>
<circle cx="173.501" cy="53.4998" r="30.5" fill="#0396D4"/>
<circle cx="173.501" cy="43.4998" r="9.5" fill="#ECF3FE"/>
<rect x="131.001" y="78.9998" width="85" height="16" rx="6" fill="white"/>
</svg>
