<svg width="53" height="53" viewBox="0 0 53 53" fill="none" xmlns="http://www.w3.org/2000/svg">
<circle cx="26.5" cy="26.5" r="26.5" fill="#D5F2FF"/>
<path d="M22.7575 25.0116L20.8521 24.2549C20.4095 24.0791 19.9081 24.2955 19.7323 24.7382C19.5565 25.1808 19.7729 25.6822 20.2156 25.858L22.121 26.6147C22.2254 26.6561 22.3331 26.6758 22.439 26.6758C22.7821 26.6758 23.1065 26.4697 23.2409 26.1314C23.4165 25.6888 23.2001 25.1874 22.7575 25.0116Z" fill="#4CB5E3"/>
<path d="M40.4556 15.9488L37.7491 14.874C36.8486 14.5163 35.8627 14.5308 34.9731 14.9147C34.0834 15.2986 33.3966 16.0059 33.039 16.9065L27.0424 32.0065C26.3019 31.9289 25.5657 32.1154 24.9573 32.5126L27.9884 24.8798C28.0728 24.6672 28.0694 24.4298 27.9787 24.2198C27.8881 24.0098 27.7177 23.8443 27.5052 23.7599L18.2565 20.0871C17.8139 19.9114 17.3125 20.1277 17.1367 20.5704L13.7455 29.1098L13.181 28.8856C12.7383 28.7099 12.237 28.9262 12.0612 29.3689C11.8853 29.8115 12.1017 30.3129 12.5444 30.4887L23.1569 34.7097C23.1877 34.7219 23.2189 34.7317 23.2501 34.7402L23.528 34.8505C23.4703 35.3908 23.5513 35.9395 23.7725 36.452C24.1108 37.2361 24.7343 37.8415 25.5279 38.1567C25.9099 38.3084 26.3095 38.3842 26.7086 38.3842C27.1386 38.3842 27.5679 38.2963 27.9746 38.1208C28.7587 37.7825 29.3641 37.159 29.6793 36.3654C30.2196 35.0048 29.7563 33.4904 28.6454 32.6432L34.642 17.5431C34.8295 17.0709 35.1898 16.6998 35.6564 16.4985C36.1229 16.2972 36.6399 16.2896 37.1123 16.4771L39.8189 17.5519C40.2616 17.7277 40.7629 17.5114 40.9387 17.0687C41.1147 16.626 40.8983 16.1246 40.4556 15.9488ZM22.9942 32.7826L15.3486 29.7465L18.4215 22.0085L26.067 25.0447L22.9942 32.7826ZM28.0762 35.7288C27.9311 36.0942 27.6523 36.3813 27.2913 36.5371C26.9302 36.6929 26.5301 36.6988 26.1646 36.5536C25.4102 36.254 25.0402 35.3965 25.3398 34.6421C25.5688 34.0654 26.1239 33.7132 26.7098 33.7132C26.8903 33.7132 27.0737 33.7466 27.2513 33.8172C28.0057 34.1168 28.3758 34.9743 28.0762 35.7288Z" fill="#4CB5E3"/>
</svg>
