<svg width="53" height="53" viewBox="0 0 53 53" fill="none" xmlns="http://www.w3.org/2000/svg">
<circle cx="26.5" cy="26.5" r="26.5" fill="#FFF9E7"/>
<path d="M17.3906 34.4375H18.5625V35.6094C18.5625 36.2566 19.0871 36.7812 19.7344 36.7812C20.3816 36.7812 20.9062 36.2566 20.9062 35.6094V34.4375H22.0781C22.7254 34.4375 23.25 33.9129 23.25 33.2656V23.8906C23.25 23.2434 22.7254 22.7188 22.0781 22.7188H20.9062V21.5469C20.9062 20.8996 20.3816 20.375 19.7344 20.375C19.0871 20.375 18.5625 20.8996 18.5625 21.5469V22.7188H17.3906C16.7434 22.7188 16.2188 23.2434 16.2188 23.8906V33.2656C16.2188 33.9129 16.7434 34.4375 17.3906 34.4375ZM18.5625 25.0625H20.9062V32.0938H18.5625V25.0625Z" fill="#FFC107"/>
<path d="M40.8281 20.375H39.6562V14.5156C39.6562 13.8684 39.1316 13.3438 38.4844 13.3438C37.8371 13.3438 37.3125 13.8684 37.3125 14.5156V20.375H36.1406C35.4934 20.375 34.9688 20.8996 34.9688 21.5469V28.5781C34.9688 29.2254 35.4934 29.75 36.1406 29.75H37.3125V33.2656C37.3125 33.9129 37.8371 34.4375 38.4844 34.4375C39.1316 34.4375 39.6562 33.9129 39.6562 33.2656V29.75H40.8281C41.4754 29.75 42 29.2254 42 28.5781V21.5469C42 20.8996 41.4754 20.375 40.8281 20.375ZM39.6562 27.4062H37.3125V22.7188H39.6562V27.4062Z" fill="#FFC107"/>
<path d="M26.7656 25.0625H27.9375V30.9219C27.9375 31.5691 28.4621 32.0938 29.1094 32.0938C29.7566 32.0938 30.2812 31.5691 30.2812 30.9219V25.0625H31.4531C32.1004 25.0625 32.625 24.5379 32.625 23.8906V14.5156C32.625 13.8684 32.1004 13.3438 31.4531 13.3438H30.2812V12.1719C30.2812 11.5246 29.7566 11 29.1094 11C28.4621 11 27.9375 11.5246 27.9375 12.1719V13.3438H26.7656C26.1184 13.3438 25.5938 13.8684 25.5938 14.5156V23.8906C25.5938 24.5379 26.1184 25.0625 26.7656 25.0625ZM27.9375 15.6875H30.2812V22.7188H27.9375V15.6875Z" fill="#FFC107"/>
<path d="M40.8281 38.6562H14.3438V12.1719C14.3438 11.5246 13.8191 11 13.1719 11C12.5246 11 12 11.5246 12 12.1719V39.8281C12 40.4754 12.5246 41 13.1719 41H40.8281C41.4754 41 42 40.4754 42 39.8281C42 39.1809 41.4754 38.6562 40.8281 38.6562Z" fill="#FFC107"/>
</svg>
