<svg width="53" height="53" viewBox="0 0 53 53" fill="none" xmlns="http://www.w3.org/2000/svg">
<circle cx="26.5" cy="26.5" r="26.5" fill="#FFF9E7"/>
<path d="M31.2677 34.8333H21.7322C21.3104 34.8333 20.9062 34.65 20.625 34.3302C20.3385 34.0042 20.2062 33.5688 20.2614 33.1365L21.4062 21.5708C21.5052 20.8115 22.1375 20.25 22.8781 20.25H30.1208C30.8625 20.25 31.4937 20.8115 31.5906 21.5552L32.7395 33.151C32.7937 33.5677 32.6614 34.0031 32.3739 34.3292C32.0937 34.65 31.6895 34.8333 31.2677 34.8333ZM22.8781 21.2917C22.6593 21.2917 22.4718 21.4625 22.4416 21.6885L21.2979 33.2542C21.277 33.4062 21.3197 33.5417 21.4072 33.6427C21.4562 33.6979 21.5645 33.7917 21.7322 33.7917H31.2677C31.4354 33.7917 31.5437 33.6979 31.5927 33.6427C31.6812 33.5417 31.7229 33.4052 31.7041 33.2698L30.5562 21.6729C30.5281 21.4625 30.3416 21.2917 30.1218 21.2917H22.8781Z" fill="#FFC107"/>
<path d="M28.0625 23.8958C27.775 23.8958 27.5416 23.6625 27.5416 23.375V19.2083C27.5416 18.6344 27.075 18.1667 26.5 18.1667C25.925 18.1667 25.4583 18.6344 25.4583 19.2083V23.375C25.4583 23.6625 25.225 23.8958 24.9375 23.8958C24.65 23.8958 24.4166 23.6625 24.4166 23.375V19.2083C24.4166 18.0594 25.351 17.125 26.5 17.125C27.6489 17.125 28.5833 18.0594 28.5833 19.2083V23.375C28.5833 23.6625 28.35 23.8958 28.0625 23.8958Z" fill="#FFC107"/>
<path d="M26.5 39C19.6073 39 14 33.3927 14 26.5C14 19.6073 19.6073 14 26.5 14C33.3927 14 39 19.6073 39 26.5C39 33.3927 33.3927 39 26.5 39ZM26.5 15.0417C20.1823 15.0417 15.0417 20.1823 15.0417 26.5C15.0417 32.8177 20.1823 37.9583 26.5 37.9583C32.8177 37.9583 37.9583 32.8177 37.9583 26.5C37.9583 20.1823 32.8177 15.0417 26.5 15.0417Z" fill="#FFC107"/>
</svg>
