<svg width="53" height="53" viewBox="0 0 53 53" fill="none" xmlns="http://www.w3.org/2000/svg">
<circle cx="26.5" cy="26.5" r="26.5" fill="#F3E7FF"/>
<path d="M24.1875 33.7812H22.7812C22.3929 33.7812 22.0781 34.0961 22.0781 34.4844C22.0781 34.8727 22.3929 35.1875 22.7812 35.1875H24.1875C24.5758 35.1875 24.8906 34.8727 24.8906 34.4844C24.8906 34.0961 24.5758 33.7812 24.1875 33.7812Z" fill="#DC07FF"/>
<path d="M28.4297 23.8906H29.8359C30.2243 23.8906 30.5391 23.5758 30.5391 23.1875C30.5391 22.7992 30.2243 22.4844 29.8359 22.4844H28.4297C28.0414 22.4844 27.7266 22.7992 27.7266 23.1875C27.7266 23.5758 28.0414 23.8906 28.4297 23.8906Z" fill="#DC07FF"/>
<path d="M38.2969 25.2969H33.3516V14.7031C33.3516 14.3148 33.0368 14 32.6484 14H21.3516C20.9633 14 20.6484 14.3148 20.6484 14.7031V25.2969H15.7031C15.3148 25.2969 15 25.6117 15 26V37.2969C15 37.6852 15.3148 38 15.7031 38H38.2969C38.6852 38 39 37.6852 39 37.2969V26C39 25.6117 38.6852 25.2969 38.2969 25.2969ZM31.8281 26.7031H33.4688V29.5156H31.8281V26.7031ZM26.1797 15.4062H27.8203V18.2188H26.1797V15.4062ZM22.0547 15.4062H24.7734V18.9219C24.7734 19.3102 25.0883 19.625 25.4766 19.625H28.5234C28.9117 19.625 29.2266 19.3102 29.2266 18.9219V15.4062H31.9453V25.2969H22.0547V15.4062ZM20.5312 26.7031H22.1719V29.5156H20.5312V26.7031ZM16.4062 26.7031H19.125V30.2188C19.125 30.6071 19.4398 30.9219 19.8281 30.9219H22.875C23.2633 30.9219 23.5781 30.6071 23.5781 30.2188V26.7031H26.2969V36.5938H16.4062V26.7031ZM37.5938 36.5938H27.7031V26.7031H30.4219V30.2188C30.4219 30.6071 30.7367 30.9219 31.125 30.9219H34.1719C34.5602 30.9219 34.875 30.6071 34.875 30.2188V26.7031H37.5938V36.5938Z" fill="#DC07FF"/>
<path d="M34.0781 33.7812C33.6898 33.7812 33.375 34.0961 33.375 34.4844C33.375 34.8727 33.6898 35.1875 34.0781 35.1875H35.4844C35.8727 35.1875 36.1875 34.8727 36.1875 34.4844C36.1875 34.0961 35.8727 33.7812 35.4844 33.7812H34.0781Z" fill="#DC07FF"/>
</svg>
