<svg width="53" height="53" viewBox="0 0 53 53" fill="none" xmlns="http://www.w3.org/2000/svg">
<circle cx="26.5" cy="26.5" r="26.5" fill="#DBFFE8"/>
<g clip-path="url(#clip0)">
<path d="M14.9361 24.1842H39.2419C39.6596 24.1842 39.9983 23.8455 39.9983 23.4278C39.9983 23.01 39.6596 22.6714 39.2419 22.6714H38.3779V17.7564C38.3779 17.3387 38.0393 17 37.6215 17H32.7604C32.3426 17 32.004 17.3387 32.004 17.7564V22.6714H30.276V17.7564C30.276 17.3387 29.9373 17 29.5196 17H24.6584C24.2407 17 23.902 17.3387 23.902 17.7564V22.6714H22.174V17.7564C22.174 17.3387 21.8354 17 21.4176 17H16.5565C16.1387 17 15.8001 17.3387 15.8001 17.7564V22.6714H14.9361C13.9338 22.7084 13.9342 24.1473 14.9361 24.1842ZM33.5168 18.5128H36.8651V22.6714H33.5168V18.5128ZM25.4148 18.5128H28.7632V22.6714H25.4148V18.5128ZM17.3129 18.5128H20.6613V22.6714H17.3129V18.5128Z" fill="#36CF6D"/>
<path d="M39.9975 32.3399C39.9975 31.9221 39.6588 31.5835 39.2411 31.5835H38.3771V26.6685C38.3771 26.2508 38.0385 25.9121 37.6207 25.9121H32.7596C32.3418 25.9121 32.0032 26.2508 32.0032 26.6685V31.1804C31.693 31.2907 31.3946 31.4258 31.1103 31.5835H30.2752V26.6685C30.2752 26.2508 29.9365 25.9121 29.5188 25.9121H24.6576C24.2399 25.9121 23.9012 26.2508 23.9012 26.6685V31.5835H22.1732V26.6685C22.1732 26.2508 21.8346 25.9121 21.4168 25.9121H16.5557C16.1379 25.9121 15.7993 26.2508 15.7993 26.6685V31.5835H14.9353C13.9339 31.6201 13.9325 33.059 14.9353 33.0963H29.3215C26.2003 36.9139 29.0306 42.863 34.0061 42.8186C38.981 42.8632 41.8122 36.913 38.6905 33.0963H39.2411C39.6589 33.0963 39.9975 32.7576 39.9975 32.3399ZM20.6605 31.5835H17.3121V27.4249H20.6605V31.5835ZM28.7624 31.5835H25.4141V27.4249H28.7624V31.5835ZM33.516 27.4249H36.8643V31.5611C35.8492 31.0075 34.6737 30.7598 33.516 30.8555V27.4249ZM34.0061 41.3058C31.5365 41.3058 29.5274 39.2967 29.5274 36.8272C29.7526 30.8937 38.2605 30.8954 38.4848 36.8272C38.4847 39.2967 36.4756 41.3058 34.0061 41.3058Z" fill="#36CF6D"/>
<path d="M35.0417 35.2451L33.4826 36.8043L32.9702 36.2922C32.6748 35.9969 32.1958 35.9969 31.9005 36.2924C31.6052 36.5879 31.6053 37.0668 31.9007 37.3621L32.9479 38.4089C33.2433 38.7042 33.7221 38.7042 34.0175 38.4088L36.1114 36.3149C36.4068 36.0195 36.4068 35.5406 36.1114 35.2451C35.816 34.9497 35.3371 34.9497 35.0417 35.2451Z" fill="#36CF6D"/>
</g>
<defs>
<clipPath id="clip0">
<rect width="25.8188" height="25.8188" fill="white" transform="translate(14.1812 17)"/>
</clipPath>
</defs>
</svg>
