<svg width="53" height="53" viewBox="0 0 53 53" fill="none" xmlns="http://www.w3.org/2000/svg">
  <circle cx="26.5" cy="26.5" r="26.5" fill="#FFE7E7"/>
  <g clip-path="url(#clip0)">
    <path d="M25.9045 25.3739C27.1809 25.1966 28.1666 24.0988 28.1666 22.7734C28.1666 21.3268 26.9895 20.1484 25.5416 20.1484H23.2084C22.7254 20.1484 22.3334 20.5404 22.3334 21.0234V24.513V24.5339V27.44C22.3334 27.923 22.7254 28.315 23.2084 28.315C23.6914 28.315 24.0834 27.923 24.0834 27.44V26.2232L26.783 28.1518C26.937 28.2627 27.1156 28.315 27.2916 28.315C27.5646 28.315 27.8329 28.1879 28.0045 27.9487C28.2856 27.5556 28.1946 27.0096 27.8015 26.7285L25.9045 25.3739ZM24.0834 23.6484V21.8984H25.5416C26.0246 21.8984 26.4166 22.2915 26.4166 22.7734C26.4166 23.2554 26.0246 23.6484 25.5416 23.6484H24.0834Z"
          fill="#FF0707"/>
    <path d="M34 26.2734C34 24.8268 32.8229 23.6484 31.375 23.6484H29.0416C28.5586 23.6484 28.1666 24.0404 28.1666 24.5234V30.94C28.1666 31.423 28.5586 31.815 29.0416 31.815C29.5246 31.815 29.9166 31.423 29.9166 30.94V28.8984H31.375C32.8229 28.8984 34 27.7201 34 26.2734ZM31.375 27.1484H29.9166V25.3984H31.375C31.858 25.3984 32.25 25.7915 32.25 26.2734C32.25 26.7554 31.858 27.1484 31.375 27.1484Z"
          fill="#FF0707"/>
    <path d="M37.7916 16.6484H16.2084C14.4385 16.6484 13 18.087 13 19.8568V32.1068C13 33.8767 14.4385 35.315 16.2084 35.315H37.7916C39.5615 35.315 41 33.8767 41 32.1068V19.8568C41 18.087 39.5615 16.6484 37.7916 16.6484V16.6484ZM39.25 32.1068C39.25 32.9107 38.5955 33.565 37.7916 33.565H16.2084C15.4045 33.565 14.75 32.9107 14.75 32.1068V19.8568C14.75 19.053 15.4045 18.3984 16.2084 18.3984H37.7916C38.5955 18.3984 39.25 19.053 39.25 19.8568V32.1068Z"
          fill="#FF0707"/>
    <path d="M20.2916 20.1484H17.375C16.892 20.1484 16.5 20.5404 16.5 21.0234C16.5 21.5064 16.892 21.8984 17.375 21.8984H20.2916C20.7746 21.8984 21.1666 21.5064 21.1666 21.0234C21.1666 20.5404 20.7746 20.1484 20.2916 20.1484Z"
          fill="#FF0707"/>
    <path d="M36.625 30.065H33.7084C33.2254 30.065 32.8334 30.457 32.8334 30.94C32.8334 31.423 33.2254 31.815 33.7084 31.815H36.625C37.108 31.815 37.5 31.423 37.5 30.94C37.5 30.457 37.108 30.065 36.625 30.065Z"
          fill="#FF0707"/>
  </g>
  <defs>
    <clipPath id="clip0">
      <rect width="28" height="28" fill="white" transform="translate(13 12)"/>
    </clipPath>
  </defs>
</svg>
