<svg xmlns="http://www.w3.org/2000/svg" viewBox="0 0 640 535"><defs><linearGradient x1="49.995%" y1="99.994%" x2="49.995%" y2="0%" id="a"><stop stop-color="gray" stop-opacity=".25" offset="0%"/><stop stop-color="gray" stop-opacity=".12" offset="54%"/><stop stop-color="gray" stop-opacity=".1" offset="100%"/></linearGradient></defs><g fill="none" fill-rule="evenodd"><path d="M207.459 19.642C226.172 2.985 255.545-.429 282.285.897c83.982 4.177 159.79 44.717 225.365 90.58 23.742 16.6 47.113 34.492 62.52 57.357 31.392 46.542 22.064 111.016-21.551 149.359-14.844 13.043-32.833 23.063-51.302 31.91-32.84 15.76-68.274 28.412-105.546 32.032-26.574 2.562-53.48.48-79.907-3.1-73.821-10.033-146.271-32.174-207.023-70.048-26.638-16.612-51.745-37.266-62.725-64.129-10.98-26.862-3.953-60.944 23.249-76.876 11.25-6.58 24.703-9.552 37.868-12.346 19.386-4.106 39.079-8.155 56.568-16.502 18.073-8.623 39.464-25.3 35.876-44.39-3.818-20.456-6.906-38.445 11.782-55.102z" fill="#304FFE" opacity=".1"/><path d="M438.807 429.159s16.054-28.438 40.226-36.632a49.483 49.483 0 0025.061-18.745 82.976 82.976 0 007.393-13.3" stroke="#535461" stroke-width="2"/><path d="M526.696 355.222c-2.754 2.678-15.586 5.44-15.586 5.44s3.145-12.743 5.9-15.414a6.952 6.952 0 119.686 9.974zM519.438 378.28c-3.767.749-16.016-3.902-16.016-3.902s9.571-8.97 13.332-9.738a6.953 6.953 0 012.71 13.64h-.026zM493.011 403.226c-3.632-1.282-11.877-11.468-11.877-11.468s12.813-2.921 16.426-1.666a6.951 6.951 0 11-4.549 13.134zM468.763 417.602c-3.786-.641-13.64-9.296-13.64-9.296s12.115-5.048 15.902-4.42a6.951 6.951 0 11-2.262 13.716zM492.697 364.422c0 3.844 6.945 14.972 6.945 14.972s6.957-11.128 6.957-14.966a6.951 6.951 0 10-13.902 0v-.006zM464.554 381.591c1.153 3.665 11.109 12.21 11.109 12.21s3.306-12.703 2.159-16.368a6.952 6.952 0 00-13.268 4.158zM439.492 402.028c.513 3.805 8.886 13.914 8.886 13.914s5.407-11.96 4.894-15.766a6.952 6.952 0 00-13.78 1.852z" fill="#304FFE"/><path d="M526.696 355.222c-2.754 2.678-15.586 5.44-15.586 5.44s3.145-12.743 5.9-15.414a6.952 6.952 0 119.686 9.974zM519.438 378.28c-3.767.749-16.016-3.902-16.016-3.902s9.571-8.97 13.332-9.738a6.953 6.953 0 012.71 13.64h-.026zM493.011 403.226c-3.632-1.282-11.877-11.468-11.877-11.468s12.813-2.921 16.426-1.666a6.951 6.951 0 11-4.549 13.134zM468.763 417.602c-3.786-.641-13.64-9.296-13.64-9.296s12.115-5.048 15.902-4.42a6.951 6.951 0 11-2.262 13.716zM492.697 364.422c0 3.844 6.945 14.972 6.945 14.972s6.957-11.128 6.957-14.966a6.951 6.951 0 10-13.902 0v-.006zM464.554 381.591c1.153 3.665 11.109 12.21 11.109 12.21s3.306-12.703 2.159-16.368a6.952 6.952 0 00-13.268 4.158zM439.492 402.028c.513 3.805 8.886 13.914 8.886 13.914s5.407-11.96 4.894-15.766a6.952 6.952 0 00-13.78 1.852z" fill="#000" opacity=".25"/><path d="M439.73 428.582s3.151-32.506 21.935-49.79a49.483 49.483 0 0015.311-27.298 82.747 82.747 0 001.371-15.164" stroke="#535461" stroke-width="2"/><path d="M490.116 325.388c-1.435 3.562-12.044 11.288-12.044 11.288s-2.281-12.928-.846-16.484a6.951 6.951 0 1112.89 5.196zM492.826 349.405c-3.14 2.21-16.247 2.928-16.247 2.928s5.125-12.089 8.245-14.299a6.952 6.952 0 018.002 11.371zM478.776 382.924c-3.843.32-15.503-5.676-15.503-5.676s10.513-7.855 14.312-8.181a6.953 6.953 0 011.166 13.857h.025zM462.434 405.89c-3.716.962-16.234-2.972-16.234-2.972s9.026-9.526 12.742-10.487a6.95 6.95 0 113.492 13.453v.007zM462.767 347.567c1.55 3.51 12.415 10.89 12.415 10.89s1.852-12.992.295-16.502a6.951 6.951 0 00-12.71 5.625v-.013zM443.996 374.672c2.53 2.883 15.1 6.663 15.1 6.663s-2.12-12.954-4.658-15.837a6.95 6.95 0 10-10.442 9.174zM429.364 403.514c2.011 3.274 13.76 9.116 13.76 9.116s.097-13.12-1.921-16.394a6.951 6.951 0 00-11.846 7.278h.007z" fill="#304FFE"/><ellipse fill="#304FFE" opacity=".1" cx="239.709" cy="522.154" rx="76.159" ry="12.768"/><ellipse fill="#304FFE" opacity=".1" cx="389.612" cy="424.143" rx="76.159" ry="12.768"/><path fill="#B77B7F" d="M394.667 255.635l-.07 2.492-4.332 152.806h-7.277l3.568-152.806.07-2.877z"/><path fill="#DDA2A6" d="M436.802 385.083l-5.452-.013-81.003-.173-4.318-.007 2.3-7.085h87.896z"/><path fill="#000" opacity=".1" d="M394.667 255.635l-.07 2.492h-8.04l.07-2.877z"/><path fill="#B77B7F" d="M384.237 251.9h13.498v5.08h-13.498z"/><path fill="#000" opacity=".1" d="M351.065 377.805l-.718 7.092-4.318-.007 2.3-7.085z"/><path fill="#DDA2A6" d="M362.692 251.804l-.224 2.204-17.97 177.226-8.232-.39 18.937-176.836.212-2.012z"/><path fill="#000" opacity=".1" d="M436.802 385.083l-5.452-.013-.737-7.265h5.612z"/><path fill="#DDA2A6" d="M445.418 430.844l-8.238.39-17.964-177.226-.224-2.204 7.271.192.211 2.012z"/><path fill="#FFF" d="M298.923 77.069h181.532v174.062H298.923z"/><path d="M393.232 18.854v42.032h-7.08V18.854a3.543 3.543 0 117.08 0z" fill="#DDA2A6"/><path fill="#000" opacity=".1" d="M386.146 57.062h7.085v3.825h-7.085z"/><path d="M396.012 59.932v13.876h-12.601V59.932a1.717 1.717 0 011.723-1.723h9.168c.946.007 1.71.776 1.71 1.723z" fill="#DDA2A6"/><circle fill="#000" opacity=".1" cx="389.689" cy="67.017" r="2.678"/><circle fill="#B77B7F" cx="389.689" cy="66.441" r="2.678"/><path fill="#000" opacity=".1" d="M383.372 72.091h12.64v1.723h-12.64zM378.202 74.391h22.98v3.831h-22.98z"/><path fill="#DDA2A6" d="M378.202 73.238h22.98v3.831h-22.98z"/><path d="M343.204 246.647h96.513c2.3 0 4.164 1.864 4.164 4.164v.91H339.04v-.91c0-2.3 1.864-4.164 4.164-4.164zM355.415 251.996l7.277-.192-.224 2.204h-7.265zM384.237 251.9h13.498v2.108h-13.498zM426.474 254.008h-7.258l-.224-2.204 7.271.192z" fill="#000" opacity=".1"/><path d="M343.204 247.78h96.513c2.3 0 4.164 1.865 4.164 4.165v.91H339.04v-.91a4.164 4.164 0 014.164-4.164z" fill="#DDA2A6"/><path d="M322.044 166.97c-1.455-.769-17.298-12.736-17.298-12.736l-25.568-16.214s-.134-.385-.378-1.045c7.015-7.963 5.484-19.52-1.652-27.643-8.65-9.853-47.728-31.065-59.503-12.922-1.647 2.563-1.704 5.471-2.133 8.29-1.006 6.58-4.248 12.954-9.335 18.322-3.92 4.145-9.065 7.963-11.32 12.653 0-.058-.045-.115-.064-.18a11.762 11.762 0 00-1.172 3.204c-1.121 5.72 2.723 11.205 4.766 16.772a30.43 30.43 0 011.486 5.817c.052-.398.097-.788.141-1.185.498 2.823.668 5.696.507 8.558-14.19 2.89-14.197 27.164-14.197 27.164s-1.749 9.648-1.454 13.126c.294 3.479.288 11 .288 12.813 0 1.813-1.749 13.12-1.922 14.479a.327.327 0 010 .057c-.256 1.487-2.915 8.649 3.51 10.25.45.116.923.212 1.417.302.275 5.797.775 17.938.333 20.641 0 0 2.338 16.31 4.28 20.456a47.049 47.049 0 004.291 6.931 7.636 7.636 0 01-.986 2.813c-.993 1.429-.48 2.6 1.179 3.107-.058.493-.122 1.05-.193 1.678-.71 6.292-1.774 18.797.032 25.133 2.48 8.687 2.627 11.583 2.627 11.583s0 2.6 1.025 4.048 2.915 14.915 2.915 17.086c0 2.172 4.959 21.712 3.498 26.343-1.46 4.632-.288 11.148-.288 11.148s-.878 11.435-1.922 13.895c-1.044 2.46-1.46 42.122.14 52.398a604.471 604.471 0 012.627 18.816s-1.018 9.41-.147 10.711c.871 1.3 2.48 9.123 1.313 9.552-1.166.43-1.749 3.62-1.749 3.62a32.282 32.282 0 001.993 2.71 10.89 10.89 0 01-1.314-.558c.462.641 1.154 1.55 2.006 2.563l-.801 10.41c-.07.838.47 1.606 1.281 1.826a14.651 14.651 0 0014.491-4.074c7.29-7.38 9.77-6.368 11.083-10.853.141-.48.263-.954.366-1.403.941-3.997-3.319-6.97-6.708-5.266.468-3.165.833-6.759.48-8.79-.73-4.196-.582-15.195-.582-15.195l-1.019-52.693s1.89-10.423 4.08-14.472c2.192-4.049 1.923-18.24 1.923-18.24l2.48-46.612 2.331-22.724s2.332-7.816 5.247.872c0 0-1.602 17.508-.871 21.71.73 4.203 1.749 24.608 1.018 29.092-.73 4.485-3.933 29.098-1.922 35.319 2.012 6.22 4.254 13.76 3.806 16.227-.449 2.467-1.922 55.87-1.922 55.87s3.94 10.25 1.025 13.608c-2.915 3.357-.148 16.656-.148 16.656s.353.25.955.596l-.083 1.108-.916 11.974a1.755 1.755 0 001.28 1.832 14.645 14.645 0 0014.492-4.074c7.29-7.387 9.77-6.368 11.083-10.859.141-.48.263-.948.372-1.403 1.025-4.363-4.164-7.528-7.637-4.677l-.173.148a6.028 6.028 0 01-.57.429c-.092.068-.188.13-.288.186.73-3.306 1.794-8.97 1.281-11.622-.73-3.907.724-15.772.724-15.772s4.228-14.19 4.376-19.86l1.166-45.159s-.141-18.386.442-22.87c.583-4.485 5.247-43.282 9.91-54.865 3.582-8.867 5.183-31.494 4.235-42.968a47.019 47.019 0 00-.166-1.614c5.72-4.222 6.29-11.244 6.29-11.244s-5.253-10.032-10.307-14.28c-5.055-4.247-6.144-11.55-5.965-14.657a7.61 7.61 0 00-1.749-5.209s-2.332-7.527-3.888-8.296a1.217 1.217 0 01-.34-.256c-1.057-1.134-.243-4.376-.243-4.376v-.102c.186-.75 1.281-5.606.954-6.849-.39-1.345.192-7.72.192-7.72s3.697-11 3.114-19.686c-.583-8.687 7.585-7.912 7.585-7.912l25.222-.263h2.87a20.2 20.2 0 002.761-2.857c4.805-.57 14.524-2.383 15.613-7.688 1.48-7.04-4.549-14.184-6.01-14.959zM205.19 247.28l.173-4.413c.596.512.993.84.993.84a6.906 6.906 0 01.045 3.535 3.773 3.773 0 01-2.185 2.448c-.122.053-.24.115-.352.185l-.244-2.492 1.57-.102zm91.483-77.517c-1.07-.48-4.67-.384-6.521-.384-1.852 0-4.857-1.544-4.857-1.544-.64-1.25-4.183-1.992-7.335-2.415-2.396-5.907-5.766-11.666-6.22-17.823 0-.224 0-.448-.032-.672l.365.64s14.683 9.366 16.336 12.172c1.281 2.14 7.45 6.92 10.308 9.059a2.94 2.94 0 01-1.57 1.05.865.865 0 01-.474-.083z" fill="url(#a)" fill-rule="nonzero"/><path d="M272.426 512.006c-.109.449-.224.917-.365 1.39-1.281 4.485-3.735 3.447-10.891 10.77a14.338 14.338 0 01-14.267 4.049 1.73 1.73 0 01-1.281-1.82l.903-11.877.43-5.715s11.428 3.203 17.245-.865a6.9 6.9 0 00.564-.429c.045-.04.088-.083.128-.128a4.67 4.67 0 017.534 4.625zM236.55 507.522c-.109.448-.224.916-.365 1.39-1.281 4.485-3.735 3.447-10.89 10.77a14.338 14.338 0 01-14.268 4.048 1.73 1.73 0 01-1.281-1.82l.903-11.877.43-5.714s11.428 3.203 17.245-.865a6.9 6.9 0 00.564-.43c.045-.04.088-.083.128-.128a4.67 4.67 0 017.534 4.626z" fill="#67647E"/><path d="M224.743 509.303l.461 6.176c-6.56 6.553-14.37-3.204-16.656-6.407 6.015 3.101 16.195.23 16.195.23zM263.303 511.814l.859-.57c-5.99 9.11-14.889 4.907-17.663 3.274l.43-5.715s11.429 3.203 17.246-.865c-.455 2.23-.872 3.876-.872 3.876z" fill="#000" opacity=".1"/><path d="M281.549 339.335c-4.6 11.486-9.193 49.97-9.77 54.454-.577 4.484-.43 22.691-.43 22.691l-1.152 44.775c-.148 5.605-4.312 19.68-4.312 19.68s-1.435 11.775-.717 15.651c.717 3.876-1.865 14.094-1.865 14.094l.859-.576c-7.182 10.89-18.528 2.729-18.528 2.729s-2.729-13.21.148-16.516c2.876-3.306-1.006-13.498-1.006-13.498s1.435-52.994 1.864-55.435c.43-2.44-1.723-9.91-3.735-16.086-2.011-6.176 1.153-30.59 1.871-35.043.717-4.453-.288-24.703-1.006-28.868-.717-4.164.859-21.544.859-21.544-2.87-8.617-5.17-.859-5.17-.859l-2.3 22.544-2.441 46.248s.288 14.094-1.864 18.098c-2.153 4.004-4.024 14.357-4.024 14.357l1.006 52.283s-.14 10.89.577 15.074c.717 4.183-1.583 14.94-1.583 14.94-8.04 18.943-20.955-1.595-20.955-1.595s.577-3.159 1.723-3.588c1.147-.43-.429-8.187-1.28-9.482-.853-1.294.14-10.628.14-10.628s-1.006-8.469-2.563-18.668c-1.556-10.199-1.146-49.547-.14-51.988 1.005-2.44 1.864-13.787 1.864-13.787s-1.147-6.464.288-11.063c1.435-4.6-3.447-23.98-3.447-26.139 0-2.159-1.864-15.51-2.87-16.945-1.005-1.435-1.005-4.023-1.005-4.023s-.141-2.87-2.563-11.486c-1.781-6.292-.73-18.694-.032-24.94.25-2.313.468-3.787.468-3.787s82.367-13.357 85.653-10.34c.77.711 1.282 3.152 1.583 6.63.98 11.379-.635 33.865-4.145 42.636z" fill="#444053"/><path d="M250.375 403.911c.385 0 9.482.769 12.813.096 3.331-.672-12.813-.096-12.813-.096zM251.048 409.273s12.563 2.204 13.203 1.057c.641-1.146-13.203-1.057-13.203-1.057zM212.654 406.973s6.51.289 10.052 1.922c3.543 1.634-10.052-1.922-10.052-1.922z" fill="#000" opacity=".1"/><path d="M189.002 245.936s1.05 20.007.48 23.55c0 0 2.294 16.182 4.21 20.295 1.915 4.113 6.034 9.29 6.034 9.29l5.65-39.72-1.345-13.608-15.03.193z" fill="#EFB7B9"/><circle fill="#EFB7B9" cx="248.364" cy="132.67" r="22.115"/><path d="M236.877 143.004s-6.893 13.505-13.787 19.821c-6.893 6.317 41.36 13.499 42.507 13.499 1.147 0-8.617-28.72-6.893-32.186 1.723-3.466-21.827-1.134-21.827-1.134z" fill="#EFB7B9"/><path d="M285.707 296.7a14.37 14.37 0 01-3.55 1.986c-8.802 3.447-18.38 8.232-24.889 6.323-6.508-1.91-20.295 0-20.295 0s-27.772-2.3-33.313-.961c-2.524.609-4.485.583-5.766.147.25-2.312.468-3.786.468-3.786s82.463-13.357 85.75-10.34c.78.711 1.28 3.152 1.595 6.63z" fill="#000" opacity=".1"/><path d="M291.735 283.938s-.762 9.578-9.578 13.025c-8.815 3.446-18.38 8.232-24.889 6.323-6.508-1.91-20.295 0-20.295 0s-27.772-2.3-33.313-.961c-5.542 1.339-8.431-.378-6.708-2.87 1.723-2.492 1.538-10.725 1.538-14.171 0-3.447-1.922-17.426-.199-19.918 1.723-2.492 3.255-12.063 6.701-13.6a3.754 3.754 0 002.153-2.429 6.945 6.945 0 00-.045-3.504s-.583-.48-1.384-1.192c-2.03-1.813-5.465-5.176-4.363-6.278 1.531-1.537 0-11.493 0-11.493s-3.638-7.656-2.293-10.526c1.345-2.87-11.685-18.002-11.685-18.002s0-26.035 15.702-27.188c0 0 11.108.384 12.447-4.594 1.34-4.978 10.148-7.854 10.148-7.854l20.11 4.408s17.803 3.843 21.064 1.53c3.26-2.312 5.766 3.063 5.766 3.063s11.102.576 12.249 2.876c1.147 2.3-3.633 24.697-3.633 24.697s-8.046-.762-7.47 7.854c.577 8.617-3.1 19.533-3.1 19.533s-.577 6.317-.192 7.656c.358 1.237-.756 6.054-.936 6.797v.096s-.8 3.204.237 4.344c.097.103.21.19.334.256 1.537.763 3.843 8.232 3.843 8.232a7.579 7.579 0 011.724 5.17c-.186 3.07.96 10.34 5.938 14.556 4.978 4.215 10.129 14.164 10.129 14.164z" fill="#A36468"/><path d="M206.331 239.593v.814l-.346 8.969s-11.781.954-18.194-.64c-6.413-1.596-3.716-8.714-3.46-10.187a.237.237 0 000-.058c.186-1.345 1.922-12.543 1.922-14.363 0-1.82 0-9.29-.288-12.736-.288-3.446 1.41-13.05 1.41-13.05l1.242-1.524 13.492 5.17 4.222 37.605z" fill="#A36468"/><path d="M206.3 240.426l-.347 8.969s-11.781.955-18.194-.64c-6.413-1.596-3.716-8.713-3.46-10.187l22 1.858z" fill="#000" opacity=".1"/><path d="M207.145 249.344a6.945 6.945 0 00-.045-3.505s-.583-.48-1.384-1.191c10.141-1.416 50.303-6.925 63.827-7.528v.096s-.8 3.204.237 4.344l-62.635 7.784zM271.055 256.25s2.492 14.094-6.797 19.053c-.007.025 5.266-6.964 6.797-19.053zM210.258 275.706s22.423-3.844 26.811-.858c4.388 2.985-26.81.858-26.81.858zM263.303 188.483s-3.446 14.17-.865 17.425c2.582 3.255.865-17.425.865-17.425zM198.387 176.9s3.159 5.266 1.243 10.724c-1.915 5.459-1.243-10.724-1.243-10.724zM191.86 223.052s4.022 2.39 2.683 6.124c-1.339 3.735-2.684-6.124-2.684-6.124zM191.494 212.135s3.728 2.012 4.209 4.978c.48 2.966-4.21-4.978-4.21-4.978zM246.832 326.643s23.46 2.396 28.15-3.158c0 .032-21.16 4.216-28.15 3.158zM206.331 325.305s25.184 5.938 30.161 1.242c0 0-21.64 1.628-30.16-1.242zM248.652 334.408s10.532 0 15.414.288c4.881.289-15.414-.288-15.414-.288zM208.054 338.892s5.17 5.843 11.013 4.792c5.843-1.05-11.013-4.792-11.013-4.792z" fill="#000" opacity=".1"/><path d="M218.209 99.71c-1.621 2.517-1.679 5.432-2.102 8.225-.986 6.528-4.183 12.851-9.186 18.182-4.594 4.881-10.891 9.308-12.083 15.272-1.127 5.664 2.697 11.116 4.702 16.657 5.286 14.536-2.095 29.783-4.247 44.787-.596 4.145.122 9.443 5.228 10.82 1.595.436 3.42.379 4.856 1.07 1.921.923 2.51 2.839 2.863 4.562a69.715 69.715 0 011.32 18.758c-.23 3.523-.487 7.579 2.844 10 1.512 1.109 3.55 1.672 5.516 2.204 5.247 1.416 12.032 2.563 15.568-.762 1.486-1.39 2.044-3.35 3.895-4.453 2.774-1.646 6.707-.531 10.199-.359 7.169.36 13.755-3.843 16.58-8.91 2.825-5.068 2.562-10.892 1.537-16.356-1.025-5.465-2.857-10.891-2.985-16.44-.045-1.921.128-3.875 1.23-5.58 2.133-3.299 7.098-4.798 10.494-7.392 6.361-4.87 6.342-12.845 4.03-19.52-2.313-6.676-6.465-13.076-6.977-19.976a7.604 7.604 0 01.941-4.824c.91-1.403 2.499-2.453 3.844-3.613 9.283-7.841 8.188-20.718.513-29.533-8.495-9.77-46.985-30.815-58.58-12.82z" fill="#E3787D"/><g opacity=".1" fill="#000"><path d="M200.72 164.08c.723-5.823.589-11.595-1.468-17.264-1.012-2.78-2.48-5.542-3.55-8.329a12.018 12.018 0 00-1.152 3.203c-1.128 5.664 2.697 11.116 4.702 16.657a30.29 30.29 0 011.467 5.734zM209.272 226.812a69.97 69.97 0 00-1.314-18.758c-.358-1.723-.948-3.632-2.87-4.555-1.435-.691-3.26-.64-4.856-1.07a6.618 6.618 0 01-4.484-3.702 80.16 80.16 0 00-.763 4.375c-.595 4.145.122 9.443 5.228 10.82 1.595.43 3.421.372 4.856 1.064 1.922.923 2.511 2.838 2.87 4.562a70.99 70.99 0 011.23 8.661c.045-.474.07-.935.103-1.397zM263.88 224.538c-2.832 5.087-9.418 9.27-16.586 8.911-3.492-.179-7.425-1.28-10.193.36-1.851 1.095-2.415 3.061-3.901 4.452-3.537 3.299-10.321 2.178-15.568.762-1.967-.538-3.998-1.095-5.516-2.204a6.919 6.919 0 01-2.723-4.42c.039 1.967 0 3.94-.121 5.907-.231 3.523-.487 7.578 2.844 10.006 1.518 1.102 3.55 1.666 5.516 2.198 5.247 1.416 12.031 2.562 15.568-.763 1.486-1.39 2.05-3.35 3.901-4.484 2.768-1.647 6.701-.532 10.193-.359 7.168.359 13.754-3.844 16.586-8.911 2.716-4.895 2.594-10.43 1.646-15.715a17.214 17.214 0 01-1.646 4.26zM276.014 130.864c-1.371 1.153-2.96 2.21-3.844 3.613a7.604 7.604 0 00-.942 4.824c.186 2.096.63 4.162 1.32 6.15a25.587 25.587 0 013.491-3.1c6.279-5.299 7.803-12.903 5.766-20.001a18.284 18.284 0 01-5.791 8.514zM274.15 178.764c-3.39 2.595-8.361 4.1-10.488 7.4-1.108 1.704-1.281 3.67-1.236 5.573.078 2.24.353 4.47.82 6.663.12-.26.26-.51.416-.75 2.127-3.299 7.098-4.798 10.487-7.393 5.811-4.446 6.298-11.48 4.58-17.752a13.3 13.3 0 01-4.58 6.26z"/></g><path d="M308.968 192.41s16.567-.858 18.002-7.848c1.435-6.99-4.484-14.094-5.932-14.843-1.448-.75-17.067-12.64-17.067-12.64l-25.177-16.08s-12.063-34.595-14.735-21.353c-2.671 13.242 7.758 30.828 7.758 30.828s14.453 9.289 16.08 12.063c1.628 2.774 11.59 10.052 11.59 10.052l9.481 19.821z" fill="#EFB7B9"/><path d="M317.873 181.11c-3.92 9.961-9 13.888-9 13.888h-2.826l-24.838.256-2.863-7.822 4.023-16.951 2.485.102s2.973 1.532 4.786 1.532c1.813 0 5.369-.097 6.406.377.145.071.309.096.468.071.942-.096 1.922-1.506 1.922-1.506s23.364.097 19.437 10.052z" fill="#A36468"/><path d="M317.873 181.11c-3.92 9.961-9 13.888-9 13.888h-2.826c1.473-3.946 4.58-12.044 5.766-13.915 1.16-1.768-9.245-6.169-15.33-8.546.94-.096 1.921-1.505 1.921-1.505s23.396.122 19.47 10.077z" fill="#000" opacity=".1"/><ellipse fill="#304FFE" opacity=".1" cx="58.183" cy="489.539" rx="28.304" ry="5.535"/><ellipse fill="#304FFE" opacity=".1" cx="529.989" cy="453.029" rx="20.616" ry="4.03"/><ellipse fill="#304FFE" opacity=".1" cx="619.352" cy="469.359" rx="20.616" ry="4.03"/><ellipse fill="#304FFE" opacity=".1" cx="480.98" cy="502.993" rx="20.616" ry="4.03"/><path d="M84.93 335.888s4.638 6.067-2.14 15.215c-6.778 9.148-12.358 16.875-10.09 22.583 0 0 10.218-16.997 18.54-17.234 8.322-.237 2.844-10.34-6.31-20.564z" fill="#304FFE"/><path d="M84.93 335.888c.406.592.725 1.24.948 1.922 8.117 9.539 12.441 18.437 4.638 18.662-7.265.205-15.984 13.203-18.072 16.483.066.255.15.506.25.75 0 0 10.218-16.996 18.54-17.233 8.322-.237 2.85-10.36-6.304-20.584z" fill="#000" opacity=".1"/><path d="M93.546 343.614c0 2.133-.237 3.844-.531 3.844-.295 0-.539-1.73-.539-3.844s.302-1.128.596-1.128c.295 0 .474-1.03.474 1.128z" fill="#FFD037"/><path d="M96.506 346.164c-1.87 1.018-3.504 1.64-3.645 1.377-.141-.263 1.281-1.281 3.133-2.319 1.851-1.038 1.134-.275 1.28 0 .148.275 1.103-.083-.768.942z" fill="#FFD037"/><path d="M60.45 335.888s-4.637 6.067 2.14 15.215c6.779 9.148 12.359 16.875 10.11 22.583 0 0-10.25-16.997-18.579-17.234-8.328-.237-2.825-10.34 6.33-20.564z" fill="#304FFE"/><path d="M60.45 335.888a7.553 7.553 0 00-.947 1.922c-8.117 9.539-12.442 18.437-4.639 18.662 7.265.205 16.016 13.203 18.073 16.483a7.31 7.31 0 01-.244.75s-10.25-16.996-18.578-17.233c-8.328-.237-2.819-10.36 6.336-20.584z" fill="#000" opacity=".1"/><path d="M51.834 343.614c0 2.133.237 3.844.532 3.844.295 0 .538-1.73.538-3.844s-.301-1.128-.596-1.128c-.294 0-.474-1.03-.474 1.128z" fill="#FFD037"/><path d="M48.874 346.164c1.878 1.018 3.505 1.64 3.652 1.377.147-.263-1.281-1.281-3.139-2.319-1.858-1.038-1.134-.275-1.281 0-.148.275-1.102-.083.768.942z" fill="#FFD037"/><ellipse fill="#304FFE" opacity=".1" cx="72.687" cy="412.617" rx="48.464" ry="7.438"/><path d="M97.634 365.518l-.231 1.921-.327 2.672-.134 1.115-.327 2.678-.14 1.114-.328 2.672-3.703 30.392c-.333 2.716-4.766 4.83-10.122 4.83H63.09c-5.355 0-9.782-2.114-10.115-4.83l-3.71-30.399-.326-2.671-.135-1.115-.333-2.678-.135-1.114-.326-2.672-.231-1.922c-.186-1.537 2.21-2.832 5.24-2.832h39.413c2.991.007 5.394 1.301 5.202 2.839z" fill="#65617D"/><path fill="#9D9CB5" d="M97.397 367.407l-.32 2.678h-48.78l-.32-2.678zM96.935 371.2l-.32 2.671h-47.85l-.326-2.671zM96.474 374.986l-.327 2.672h-46.92l-.327-2.672z"/><circle fill="#304FFE" opacity=".1" cx="115.309" cy="80.413" r="20.18"/><circle fill="#304FFE" opacity=".1" cx="73.027" cy="32.365" r="12.492"/><circle fill="#304FFE" opacity=".1" cx="7.688" cy="60.233" r="7.688"/></g></svg>
