<svg xmlns="http://www.w3.org/2000/svg" viewBox="0 0 640 469"><defs><linearGradient x1="50.001%" y1="100.001%" x2="50.001%" y2="-.016%" id="a"><stop stop-color="gray" stop-opacity=".25" offset="0%"/><stop stop-color="gray" stop-opacity=".12" offset="54%"/><stop stop-color="gray" stop-opacity=".1" offset="100%"/></linearGradient></defs><g fill="none" fill-rule="evenodd"><path d="M208.66 297.564c21.158-8.322 54.37-10.019 84.6-9.352 94.958 2.079 180.673 22.303 254.813 45.182 26.842 8.285 53.266 17.212 70.69 28.618 35.467 23.218 24.946 55.382-24.37 74.51-16.78 6.508-37.12 11.514-58.005 15.914-37.14 7.867-77.188 14.176-119.333 15.994-30.049 1.28-60.473.237-90.346-1.551-83.473-5.012-165.4-16.024-234.073-34.952-30.12-8.285-58.509-18.588-70.909-32-12.4-13.412-4.472-30.394 26.285-38.333 12.727-3.279 27.927-4.764 42.818-6.152 21.915-2.048 44.182-4.072 63.958-8.236 20.43-4.303 44.618-12.624 40.576-22.145-4.358-10.219-7.837-19.188 13.297-27.497z" fill="#304FFE" opacity=".1"/><path d="M305.079 18.26l-2.31 133.94s83.589 0 154.704 23.09l1.388-135.345S344.794 12.721 305.079 18.261z" fill="#000" opacity=".1"/><path d="M303.867 16.442l-2.31 133.94s83.588 0 154.704 23.09l1.387-135.345S343.582 10.903 303.867 16.442z" fill="#FFF"/><path d="M269.479 18.158l2.309 133.939s-83.588 0-154.703 23.09L115.697 39.88s114.067-27.26 153.782-21.721z" fill="#000" opacity=".1"/><path d="M270.69 16.34L273 150.278s-83.588 0-154.703 23.09l-1.388-135.308S230.976 10.8 270.691 16.339z" fill="#FFF"/><path d="M479.036 59.042v132.54s27.273-3.23 84.51 67.424l5.084-132.54s-59.575-64.187-89.594-67.424z" fill="#000" opacity=".1"/><path d="M477.824 57.83v132.54s27.273-3.23 84.51 67.424l5.084-132.54s-59.576-64.187-89.594-67.424z" fill="#FFF"/><path d="M97.006 62.976V195.52s-27.273-3.23-84.509 67.424L7.418 130.406s59.57-64.188 89.588-67.43z" fill="#000" opacity=".1"/><path d="M98.218 61.158v132.545s-27.273-3.23-84.509 67.424L8.63 128.587S68.2 64.4 98.218 61.158z" fill="#FFF"/><path d="M404.885 284.655c0 4.515-28.673 30.606-93.94 30.606-65.266 0-100.606-25.182-100.606-29.697 0-4.516 36.552 6.666 101.819 6.666 65.266 0 92.727-12.097 92.727-7.575z" fill="#F7F7FD"/><ellipse fill="#304FFE" opacity=".1" cx="191.582" cy="221.515" rx="6.945" ry="1"/><ellipse fill="#304FFE" opacity=".1" cx="164.982" cy="224.212" rx="6.945" ry="1"/><ellipse fill="#304FFE" opacity=".1" cx="133.661" cy="220.564" rx="6.945" ry="1"/><ellipse fill="#304FFE" opacity=".1" cx="175.63" cy="231.891" rx="4.933" ry="1"/><ellipse fill="#304FFE" opacity=".1" cx="148.024" cy="231.212" rx="4.933" ry="1"/><path d="M164.836 224s9.734-31.921-1.527-44.703c-8.424-9.564-18-8.442-22.242-7.23a7.915 7.915 0 00-5.11 4.242c-1.496 3.23-1.212 8.485 9.346 14.594 17.69 10.242 18.788 24.297 18.788 24.297l.745 8.8z" fill="#304FFE"/><path d="M142.57 176.588s28.703 8.976 22.266 47.412M159.333 179.806s-3.951 2.66-2.697 6.667M145.448 182.176s2.425-2.46 5.352-1.103M156.824 194.533s4.243-2.151 5.34.546M167.29 199.024s-3.187-.254-3.242 1.267" stroke="#565987"/><path d="M165.23 224.255s-11.406-23.2-14.545-22.691c-1.485.242-2.17 1.703-2.485 3.175a9.333 9.333 0 00.606 5.649c1.642 3.709 5.988 10.77 16.424 13.867z" fill="#304FFE"/><path d="M150.764 205.964s11.97 17.357 14.284 18.12M149.679 208.673h2.794M153.024 215.024l4.376.188M155.69 209.945l-.478 2.28M160.345 216.885l-.084 2.073" stroke="#565987"/><path d="M164.89 224.255s11.4-23.2 14.546-22.691c1.491.242 2.176 1.703 2.485 3.175a9.376 9.376 0 01-.606 5.649c-1.642 3.709-5.988 10.77-16.424 13.867z" fill="#304FFE"/><path d="M179.34 205.964s-11.97 17.357-14.28 18.12M180.442 208.673h-2.794M177.097 215.024l-4.382.188M174.43 209.945l.48 2.28M169.776 216.885l.085 2.073" stroke="#565987"/><path d="M145.31 229.673a1.976 1.976 0 01-.65-.982.86.86 0 01.455-.994c.412-.164.86.127 1.212.418a1.6 1.6 0 001.164.564 1.782 1.782 0 01-.552-1.66.764.764 0 01.158-.34c.23-.249.648-.14.927.054.879.606 1.121 1.819 1.128 2.891.047-.402.047-.81 0-1.212-.037-.404.131-.8.448-1.054a1.37 1.37 0 01.679-.164c.397-.057.8.058 1.109.315.298.411.28.972-.043 1.364a4.333 4.333 0 01-1.145.915c-.33.194-.61.461-.818.782a.57.57 0 00-.06.14h-2.486a7.212 7.212 0 01-1.527-1.037zM188.764 220.327a1.964 1.964 0 01-.649-.975.867.867 0 01.455-1c.45-.088.914.074 1.212.424.29.344.714.547 1.163.557a1.776 1.776 0 01-.551-1.66.679.679 0 01.158-.334c.23-.248.648-.145.927.049.879.606 1.121 1.818 1.127 2.897.047-.403.047-.81 0-1.212-.037-.405.132-.8.449-1.055.207-.113.442-.167.678-.157.398-.06.803.055 1.11.315.299.408.281.968-.043 1.357a4.333 4.333 0 01-1.145.915 2.527 2.527 0 00-.819.782.57.57 0 00-.06.14h-2.485a6.994 6.994 0 01-1.527-1.043zM174.279 229.673a1.976 1.976 0 01-.649-.982.867.867 0 01.455-.994c.418-.164.86.127 1.212.418.292.343.714.547 1.164.564a1.776 1.776 0 01-.546-1.66.69.69 0 01.152-.34c.23-.249.648-.14.927.054.879.606 1.127 1.819 1.133 2.891.044-.403.044-.809 0-1.212-.036-.404.132-.8.449-1.054a1.818 1.818 0 011.788.151c.302.41.284.973-.043 1.364-.326.369-.713.679-1.145.915a2.582 2.582 0 00-.818.782.97.97 0 00-.061.14h-2.479a7.097 7.097 0 01-1.54-1.037zM133.188 210.788s-.927 1.212.43 3.03c1.358 1.818 2.485 3.388 2.03 4.534 0 0-2.054-3.413-3.72-3.461-1.667-.049-.558-2.055 1.26-4.103z" fill="#304FFE"/><path d="M133.188 210.788a1.43 1.43 0 00-.188.382c-1.63 1.909-2.497 3.697-.933 3.74 1.46.042 3.212 2.654 3.636 3.308a1.109 1.109 0 01-.048.152s-2.055-3.412-3.722-3.46c-1.666-.05-.563-2.074 1.255-4.122z" fill="#000" opacity=".1"/><path d="M131.479 212.333c0 .43.048.776.109.776.06 0 .103-.345.103-.776 0-.43-.055-.224-.115-.224-.06 0-.097-.2-.097.224z" fill="#FFD037"/><path d="M130.885 212.848c.376.207.703.328.733.273.03-.054-.254-.26-.606-.46-.351-.2-.23-.061-.254 0-.025.06-.249.012.127.187z" fill="#FFD037"/><path d="M138.121 210.788s.934 1.212-.43 3.03c-1.364 1.818-2.479 3.388-2.024 4.534 0 0 2.048-3.413 3.72-3.461 1.674-.049.57-2.055-1.266-4.103z" fill="#304FFE"/><path d="M138.121 210.788c.082.117.145.246.188.382 1.63 1.909 2.497 3.697.933 3.74-1.46.042-3.206 2.654-3.636 3.308.013.052.029.102.049.152 0 0 2.048-3.412 3.72-3.46 1.673-.05.583-2.074-1.254-4.122z" fill="#000" opacity=".1"/><path d="M139.855 212.333c0 .43-.043.776-.103.776-.061 0-.11-.345-.11-.776 0-.43.061-.224.122-.224.06 0 .09-.2.09.224z" fill="#FFD037"/><path d="M140.46 212.848c-.375.207-.702.328-.727.273-.024-.054.249-.26.606-.46.358-.2.23-.061.261 0 .03.06.218.012-.14.187z" fill="#FFD037"/><path d="M139.558 218.212s-2.606-.079-3.388-.636c-.782-.558-4-1.212-4.194-.334-.194.88-3.91 4.455-.976 4.48 2.933.023 6.824-.461 7.606-.934.782-.473.952-2.576.952-2.576z" fill="#A8A8A8"/><path d="M130.952 221.406c2.933 0 6.824-.454 7.606-.933.606-.364.83-1.667.909-2.267h.09s-.17 2.097-.95 2.576c-.783.479-4.668.957-7.607.933-.842 0-1.14-.309-1.121-.757.115.278.442.442 1.073.448z" fill="#000" opacity=".2"/><ellipse fill="#304FFE" opacity=".1" cx="118.285" cy="300.842" rx="21.042" ry="3.109"/><ellipse fill="#304FFE" opacity=".1" cx="177.061" cy="326.588" rx="21.042" ry="3.109"/><ellipse fill="#304FFE" opacity=".1" cx="90.6" cy="355.879" rx="21.042" ry="3.109"/><ellipse fill="#304FFE" opacity=".1" cx="536.448" cy="420.218" rx="21.042" ry="3.109"/><ellipse fill="#304FFE" opacity=".1" cx="297.63" cy="348.679" rx="13.933" ry="1.558"/><ellipse fill="#304FFE" opacity=".1" cx="497.024" cy="268.679" rx="13.933" ry="1.558"/><ellipse fill="#304FFE" opacity=".1" cx="388.533" cy="386.861" rx="13.933" ry="1.558"/><ellipse fill="#304FFE" opacity=".1" cx="268.267" cy="376.582" rx="13.933" ry="1.558"/><ellipse fill="#304FFE" opacity=".1" cx="155.558" cy="372.539" rx="13.933" ry="1.558"/><ellipse fill="#304FFE" opacity=".1" cx="126.188" cy="400.442" rx="13.933" ry="1.558"/><g opacity=".1" transform="translate(214.545 103.636)" fill="#000"><ellipse cx="93.818" cy="41.515" rx="92.194" ry="41.145"/><path d="M187.612 56.224c-4.079 21.455-44.382 38.297-93.509 38.297-49.558 0-90.14-17.14-93.618-38.854H.139V90.63c16.206 16.934 52.085 28.71 93.734 28.71 41.648 0 77.527-11.776 93.74-28.71V56.224z"/><path d="M187.612 98.77c-4.079 21.448-44.382 38.297-93.509 38.297-49.558 0-90.14-17.14-93.618-38.86H.139v34.969c16.206 16.933 52.085 28.703 93.734 28.703 41.648 0 77.527-11.77 93.74-28.703V98.77z"/><path d="M187.612 145.564c-4.079 21.454-44.382 38.297-93.509 38.297-49.558 0-90.14-17.134-93.618-38.855H.139v37.71a5.812 5.812 0 001.867 4.278c16.97 15.582 51.752 21.685 91.867 21.685s74.879-6.103 91.872-21.685a5.812 5.812 0 001.867-4.279v-37.151z"/></g><ellipse fill="#304FFE" cx="308.364" cy="142.727" rx="92.194" ry="41.145"/><path d="M402.158 157.436c-4.08 21.455-44.382 38.297-93.51 38.297-49.557 0-90.139-17.14-93.618-38.854h-.345v34.963c16.206 16.934 52.085 28.71 93.733 28.71 41.649 0 77.527-11.776 93.74-28.71v-34.406z" fill="#304FFE"/><path d="M402.158 199.982c-4.08 21.448-44.382 38.297-93.51 38.297-49.557 0-90.139-17.14-93.618-38.86h-.345v34.969c16.206 16.933 52.085 28.703 93.733 28.703 41.649 0 77.527-11.77 93.74-28.703v-34.406z" fill="#304FFE"/><path d="M402.158 246.776c-4.08 21.454-44.382 38.297-93.51 38.297-49.557 0-90.139-17.134-93.618-38.855h-.345v37.71a5.812 5.812 0 001.867 4.278c16.97 15.582 51.751 21.685 91.866 21.685s74.879-6.103 91.873-21.685a5.812 5.812 0 001.867-4.279v-37.151z" fill="#304FFE"/><ellipse fill="#304FFE" opacity=".1" cx="444.261" cy="346.212" rx="34.545" ry="6.218"/><path d="M424.867 266.982c1.745 1.03 4.485 1.703 7.933-.515l-.03 4.915c.242 3.37 4.412 15.654 4.412 15.654l2.94 10.103a78.83 78.83 0 013.23 21.988c0 2.46.23 5.006.939 6.921 1.57 4.243-.606 9.697-1.558 11.71-1.591.538-3.21.993-4.848 1.363-.146.035-.29.08-.43.134v-.03s-4.413 1.75-6.376 1.508c-1.46-.175-2.376 1.649-1.212 2.988-.95.29-1.941.421-2.934.388-1.963-.242-2.945 3.127.734 4.091 3.678.964 24.52 0 24.52 0a2.952 2.952 0 001.565-3.26l2.606-.11s3.678-1.685 0-6.26l-.2.145-.782-2.315v-3.121s4.66-22.424 3.188-25.049c-1.473-2.624-2.255-16.163-2.255-16.163l.515-14.667c1.328-2.74 2.006-7.042 2.352-10.406.502-1.603.817-3.258.94-4.933.06-.794.108-1.619.139-2.48a16.527 16.527 0 00-.897-5.55 55.794 55.794 0 015.557-6.97 7.164 7.164 0 002.212-6.261l-1.212-8.188-2.945-13.94c.37-3.872-.437-6.102-1.334-7.363.212-1.254.412-2.503.564-3.764a48.242 48.242 0 00-.86-16.363c-.425-1.867-1.007-3.788-2.322-5.206-1.485-1.612-3.897-2.588-4.454-4.691a12.521 12.521 0 00-.34-1.588c-.54-1.376-2.236-1.879-3.727-2.06-2.655-.322-6.49-.564-9.042.478a10.964 10.964 0 00-5.237 4.86 4.176 4.176 0 00-.606 3 4 4 0 00.418 1.031 9.327 9.327 0 005.418 11.94 9.34 9.34 0 01.4 1.86c-.048.849-.103 1.703-.139 2.558l-.09.345a63.715 63.715 0 00-6.164 3.14c1.466 2.17-.249 11.32-.249 11.32-3.679 2.164-7.351 7.704-3.43 13.486 3.921 5.781 1.715 12.036 1.715 12.036l-.606 9.418-.121 1.885h.042l-.042.715h.103v.77c-1.722.636-4.243 1.909-5.74 4.273a15.115 15.115 0 01-2.563 3.145 1.89 1.89 0 00.303 3.085zm29.606-25.018a8.952 8.952 0 01.872-4.74h1.734c.05.383.122.764.212 1.14.497 2.151-1.491 3.163-2.818 3.6z" fill="url(#a)" fill-rule="nonzero"/><path d="M454.958 335.297l.945 2.83-3.067 3.067-10.145 2.388-7.315-.71.472-2.593a3.133 3.133 0 012.322-2.291c3.03-.703 8.74-2.315 9.945-4.552l6.843 1.861z" fill="#EFB7B9"/><path d="M454.958 335.297l.945 2.83-3.067 3.067-10.145 2.388-7.315-.71.472-2.593a3.133 3.133 0 012.322-2.291c3.03-.703 8.74-2.315 9.945-4.552l6.843 1.861z" fill="#000" opacity=".1"/><path d="M437.733 342.14l1.419-1.885-1.419-2.188s-4.242 1.715-6.133 1.478c-1.89-.236-2.83 3.067.71 4.013 3.538.945 23.593 0 23.593 0s3.54-1.655 0-6.14l-3.067 2.364s-5.194 2.83-7.788 2.357h-7.315z" fill="#C17174"/><path d="M431.37 346.152l7.315.709 10.145-2.364 3.067-3.067-.249-.745-.351-1.055-.345-1.03-6.855-1.885a4.242 4.242 0 01-1.388 1.388c-2.224 1.521-6.212 2.618-8.557 3.164a2.315 2.315 0 00-.291.09 3.09 3.09 0 00-2.048 2.2l-.443 2.595z" fill="#EFB7B9"/><path d="M431.37 346.152l7.315.709 10.145-2.364 3.067-3.067-.249-.745-2.818 2.163s-5.194 2.83-7.788 2.358h-7.32l1.417-1.885-1.272-1.963a3.09 3.09 0 00-2.048 2.2l-.45 2.594z" fill="#000" opacity=".1"/><path d="M433.721 345.442l1.418-1.884-1.418-2.188s-4.242 1.715-6.133 1.478c-1.891-.236-2.83 3.067.709 4.013 3.54.945 23.594 0 23.594 0s3.54-1.655 0-6.134l-3.067 2.358s-5.194 2.83-7.788 2.357h-7.315z" fill="#C17174"/><path d="M439.618 208.594s11.327 1.212 9.697-3.54a8.43 8.43 0 01-.351-4.17c.291-1.729.975-3.369 2-4.793l-10.619 1.648a13.249 13.249 0 011.443 3.413c1.242 5.006-2.17 7.442-2.17 7.442z" fill="#DB8B8B"/><path d="M458.97 262.37s-.237 10.145-2.594 15.103l-.473 14.394s.703 13.212 2.121 15.806c1.418 2.594-3.066 24.54-3.066 24.54v3.775s-7.552 2.83-9.697-.473l2.12-28.079-.945-38.927 12.534-6.14z" fill="#474463"/><path d="M458.97 262.37s-.237 10.145-2.594 15.103l-.473 14.394s.703 13.212 2.121 15.806c1.418 2.594-3.066 24.54-3.066 24.54v3.775s-7.552 2.83-9.697-.473l2.12-28.079-.945-38.927 12.534-6.14z" fill="#000" opacity=".1"/><path d="M463.685 229.83l1.418 3.776 1.212 8.018a7.121 7.121 0 01-2.127 6.14c-2.83 2.83-6.606 8.727-6.606 8.727l-4.479-13.449s4.479-.709 3.77-3.775c-.71-3.067-.467-8.728-.467-8.728l7.279-.709z" fill="#FF748E"/><path d="M463.74 229.776l1.412 3.776 1.212 8.024a7.09 7.09 0 01-2.122 6.133c-2.836 2.83-6.606 8.733-6.606 8.733l-4.515-13.466s4.485-.71 3.776-3.776c-.71-3.067-.473-8.733-.473-8.733l7.315-.691z" fill="#000" opacity=".05"/><path d="M442.715 338.127c3.03 4.764 7.74 2.06 8.576 1.528l-.346-1.03-6.848-1.91a4.242 4.242 0 01-1.382 1.412z" fill="#000" opacity=".1"/><path d="M433.248 271.594c.237 3.303 4.243 15.333 4.243 15.333l2.83 9.903a79.024 79.024 0 013.11 21.54 21.036 21.036 0 00.902 6.782c1.891 5.193-1.885 12.266-1.885 12.266 3.304 5.903 8.964 1.891 8.964 1.891v-3.776s4.485-20.527 3.303-24.54c-1.182-4.011-1.648-14.86-1.648-14.86v-19.588a22.224 22.224 0 006.472-14.084c.055-.776.103-1.588.134-2.425.188-5.32-3.455-11.563-4.849-13.788-.34-.539-.557-.842-.557-.842l-20.83 8.267h-.05v2.6l-.139 15.32z" fill="#474463"/><path d="M440.327 197.74a13.249 13.249 0 011.443 3.412 9.224 9.224 0 007.175-.267c.292-1.73.976-3.37 2-4.794l-10.618 1.648z" fill="#000" opacity=".1"/><circle fill="#EFB7B9" cx="445.048" cy="192.079" r="9.2"/><path d="M433.248 256.255h.104c9.89 2.036 22.315-8.273 22.315-8.273-.333-.562-.621-1.15-.86-1.758-.34-.54-.559-.842-.559-.842l-20.83 8.266-.054.825-.116 1.782z" fill="#000" opacity=".1"/><path d="M435.848 208.358s13.213-8.025 17.455-4.722l5.903 7.552s3.776 1.182 3.073 8.757l2.83 13.685-8.485 2.122s-4.951 4.72-.94 11.563c0 0-12.508 10.382-22.423 8.255l.709-11.085s2.12-6.14-1.649-11.8c-3.77-5.66-.236-11.091 3.303-13.212-.012-.025 1.637-8.994.224-11.115z" fill="#FF748E"/><path d="M435.14 256.49s-4.958.946-7.316 4.722a14.727 14.727 0 01-2.472 3.085 1.867 1.867 0 00.296 2.982c1.873 1.127 4.922 1.818 8.782-1.352 6.637-5.424.71-9.436.71-9.436z" fill="#EFB7B9"/><path d="M442.455 212.842s4.715-.472 5.897 11.794c1.181 12.267 3.066 15.103 3.066 15.103s1.182 6.37-1.654 10.146c-2.837 3.776-8.255 11.8-8.255 11.8s-5.897 1.648-7.079-4.243l7.315-13.684s1.176-4.722-1.654-8.025-4.952-25.254 2.364-22.89z" fill="#000" opacity=".1"/><path d="M441.982 212.133s4.715-.472 5.897 11.8c1.182 12.273 3.066 15.097 3.066 15.097s1.213 6.37-1.648 10.146c-2.86 3.776-8.23 11.8-8.23 11.8s-5.897 1.648-7.08-4.243l7.316-13.685s1.182-4.72-1.655-8.024c-2.836-3.303-4.981-25.248 2.334-22.89z" fill="#FF748E"/><path d="M438.085 220.982s-.467 7.315 1.654 11.327c2.122 4.012 2.122 9.2 0 12.03M436.91 212.012s1.884-1.885 7.314-2.121 7.782-1.885 7.782-1.885" fill="#000" opacity=".1"/><path d="M450.03 180.188c1.437.176 3.073.667 3.588 2.012.142.512.253 1.032.334 1.558.533 2.06 2.854 3.03 4.284 4.594 1.261 1.393 1.819 3.272 2.23 5.109a47.982 47.982 0 01.831 16.03c-.46 3.909-1.406 7.764-1.667 11.69-.26 3.928.218 8.067 2.364 11.37.927 1.419 2.145 2.667 2.8 4.243-1.352 1.097-3.218 1.254-4.964 1.315-2.02.069-4.05.069-6.09 0a6.467 6.467 0 01-3.092-.648 4.764 4.764 0 01-1.624-1.74c-1.163-1.97-1.454-4.34-1.406-6.624.049-2.285.412-4.558.455-6.849a5.952 5.952 0 00-.794-3.587 11.558 11.558 0 00-1.976-1.819c-2.527-2.242-3.394-5.83-3.479-9.206-.085-3.375.473-6.751.188-10.115-.109-1.315-.606-2.897-1.897-3.151a6.897 6.897 0 01-1.212-.158c-1.036-.4-.933-1.86-1.212-2.933-.333-1.212-1.364-2.14-1.655-3.352-.678-2.854 2.958-6.266 5.34-7.272 2.382-1.007 6.103-.782 8.654-.467z" fill="#000" opacity=".1"/><path d="M450.267 179.715c1.436.176 3.072.667 3.588 2.018.142.51.253 1.028.333 1.552.533 2.06 2.854 3.03 4.285 4.594 1.26 1.394 1.818 3.273 2.23 5.109a47.982 47.982 0 01.824 16.048c-.454 3.91-1.4 7.764-1.66 11.697-.26 3.934.218 8.06 2.363 11.364.928 1.424 2.146 2.667 2.8 4.242-1.351 1.103-3.218 1.255-4.963 1.316a95.67 95.67 0 01-6.091 0 6.46 6.46 0 01-3.091-.643 4.782 4.782 0 01-1.624-1.745c-1.164-1.97-1.455-4.34-1.406-6.625.048-2.284.412-4.557.454-6.842 0-1.248-.073-2.57-.794-3.588a11.352 11.352 0 00-1.976-1.818c-2.527-2.242-3.394-5.83-3.478-9.206-.085-3.376.472-6.752.187-10.115-.109-1.315-.606-2.897-1.896-3.152a6.897 6.897 0 01-1.213-.157c-1.036-.4-.933-1.861-1.212-2.934-.333-1.212-1.363-2.133-1.654-3.351-.68-2.855 2.957-6.267 5.34-7.273 2.38-1.006 6.12-.806 8.654-.49z" fill="#464353"/><path d="M77.6 347.133s6.497-.2 8.448-1.594c1.952-1.394 9.988-3.06 10.473-.824.485 2.237 9.758 11.115 2.424 11.176-7.333.06-17.03-1.146-18.987-2.333-1.958-1.188-2.358-6.425-2.358-6.425z" fill="#A8A8A8"/><path d="M99.079 355.097c-7.327.06-17.03-1.14-18.982-2.327-1.485-.91-2.079-4.158-2.279-5.66H77.6s.412 5.235 2.364 6.423c1.951 1.188 11.654 2.388 18.988 2.334 2.115 0 2.842-.77 2.806-1.885-.297.697-1.103 1.115-2.68 1.115z" fill="#000" opacity=".2"/><path d="M490.26 261.89s4.455-.138 5.8-1.096c1.346-.958 6.855-2.097 7.188-.564.334 1.534 6.704 7.63 1.667 7.673-5.036.042-11.69-.788-13.03-1.6-1.34-.812-1.624-4.412-1.624-4.412z" fill="#A8A8A8"/><path d="M505.006 267.37c-5.03.036-11.69-.788-13.03-1.6-1.024-.606-1.43-2.855-1.564-3.885h-.151s.284 3.594 1.624 4.412c1.34.818 8 1.636 13.03 1.6 1.455 0 1.958-.527 1.927-1.297-.2.473-.751.758-1.836.77z" fill="#000" opacity=".2"/><circle fill="#304FFE" opacity=".1" cx="18.964" cy="13.109" r="13.109"/><circle fill="#304FFE" opacity=".1" cx="582.6" cy="50.685" r="13.109"/><circle fill="#304FFE" opacity=".1" cx="9.697" cy="64.352" r="9.697"/><circle fill="#304FFE" opacity=".1" cx="107.879" cy="9.806" r="9.697"/><circle fill="#304FFE" opacity=".1" cx="505.455" cy="11.018" r="9.697"/><path d="M539.164 391.758s2.424 3.175-1.122 7.97c-3.545 4.793-6.472 8.836-5.29 11.824 0 0 5.351-8.897 9.696-9.025 4.346-.127 1.504-5.412-3.284-10.77z" fill="#FC6681"/><path d="M539.164 391.758c.21.308.376.644.49 1 4.243 4.994 6.522 9.654 2.425 9.77-3.806.108-8.37 6.914-9.467 8.636.036.132.08.261.133.388 0 0 5.352-8.897 9.697-9.025 4.346-.127 1.51-5.412-3.278-10.77z" fill="#000" opacity=".1"/><path d="M543.673 395.806c0 1.115-.128 2.024-.28 2.024-.15 0-.278-.909-.278-2.024s.158-.606.31-.606c.15 0 .248-.515.248.606z" fill="#FFD037"/><path d="M545.224 397.14c-.982.533-1.818.854-1.915.72-.097-.133.667-.678 1.643-1.212.975-.533.606-.145.672 0 .067.146.582-.042-.4.491z" fill="#FFD037"/><path d="M526.34 391.758s-2.425 3.175 1.12 7.97c3.546 4.793 6.473 8.836 5.292 11.824 0 0-5.358-8.897-9.697-9.025-4.34-.127-1.51-5.412 3.284-10.77z" fill="#FC6681"/><path d="M526.34 391.758a4.006 4.006 0 00-.498 1c-4.242 4.994-6.515 9.654-2.424 9.77 3.806.108 8.376 6.914 9.467 8.636-.037.127-.079.26-.127.388 0 0-5.358-8.897-9.697-9.025-4.34-.127-1.516-5.412 3.278-10.77z" fill="#000" opacity=".1"/><path d="M521.824 395.806c0 1.115.128 2.024.285 2.024.158 0 .279-.909.279-2.024s-.158-.606-.315-.606c-.158 0-.249-.515-.249.606z" fill="#FFD037"/><path d="M520.279 397.14c.982.533 1.818.854 1.909.72.09-.133-.66-.678-1.643-1.212-.981-.533-.606-.145-.666 0-.06.146-.582-.042.4.491z" fill="#FFD037"/><path d="M522.6 411.14s6.788-.213 8.83-1.667c2.043-1.455 10.443-3.194 10.952-.86.509 2.332 10.194 11.617 2.533 11.678-7.66.06-17.806-1.212-19.842-2.424-2.037-1.212-2.473-6.728-2.473-6.728z" fill="#A8A8A8"/><path d="M545.055 419.479c-7.667.06-17.807-1.212-19.849-2.424-1.551-.946-2.176-4.346-2.382-5.916h-.224s.43 5.455 2.473 6.716c2.042 1.26 12.182 2.497 19.842 2.424 2.212 0 2.976-.806 2.933-1.97-.303.715-1.151 1.158-2.793 1.17z" fill="#000" opacity=".2"/><path d="M53.088 140.47c-7.015.377-12.397 6.366-12.027 13.38.371 7.015 6.355 12.403 13.37 12.04 7.015-.365 12.409-6.344 12.05-13.36a12.727 12.727 0 00-13.393-12.06zm.128 2.484a10.303 10.303 0 11-9.727 10.803c-.283-5.664 4.064-10.492 9.727-10.803zm4.83 15.721l1.126-1.217a.606.606 0 00-.044-.87l-9.258-8.469a.606.606 0 00-.869.044l-1.095 1.29a.606.606 0 00.043.875l9.245 8.4a.606.606 0 00.868-.038l-.016-.015zm.745-9.753l-1.217-1.125a.606.606 0 00-.869.044l-8.47 9.257a.606.606 0 00.044.87l1.29 1.095a.606.606 0 00.875-.043l8.4-9.245a.606.606 0 00-.037-.868l-.016.015zM191.532 76.454c-7.024.132-12.612 5.93-12.486 12.953.125 7.023 5.917 12.617 12.941 12.497 7.023-.119 12.622-5.906 12.51-12.93a12.727 12.727 0 00-12.965-12.52zm.041 2.487a10.303 10.303 0 11-10.098 10.457c-.085-5.67 4.428-10.344 10.098-10.457zm4.28 15.88l1.166-1.177a.606.606 0 00-.013-.87l-8.957-8.788a.606.606 0 00-.87.013l-1.14 1.251a.606.606 0 00.013.877l8.946 8.717a.606.606 0 00.87-.007l-.016-.016zm1.084-9.72l-1.177-1.168a.606.606 0 00-.87.013l-8.788 8.957a.606.606 0 00.013.87l1.252 1.14a.606.606 0 00.876-.012l8.717-8.947a.606.606 0 00-.007-.87l-.016.016zM376.532 77.454c-7.024.132-12.612 5.93-12.486 12.953.125 7.023 5.917 12.617 12.941 12.497 7.023-.119 12.622-5.906 12.51-12.93a12.727 12.727 0 00-12.965-12.52zm.041 2.487a10.303 10.303 0 11-10.098 10.457c-.085-5.67 4.428-10.344 10.098-10.457zm4.28 15.88l1.166-1.177a.606.606 0 00-.013-.87l-8.957-8.788a.606.606 0 00-.87.013l-1.14 1.251a.606.606 0 00.013.877l8.946 8.717a.606.606 0 00.87-.007l-.016-.016zm1.084-9.72l-1.177-1.168a.606.606 0 00-.87.013l-8.788 8.957a.606.606 0 00.013.87l1.252 1.14a.606.606 0 00.876-.012l8.717-8.947a.606.606 0 00-.007-.87l-.016.016zM521.976 141.453c-7.024-.113-12.81 5.486-12.93 12.51-.12 7.023 5.473 12.815 12.497 12.941 7.023.126 12.82-5.462 12.953-12.485a12.727 12.727 0 00-12.52-12.966zm-.046 2.488a10.303 10.303 0 11-10.456 10.097c.112-5.67 4.786-10.183 10.456-10.097zm3.723 16.019l1.207-1.136a.606.606 0 00.017-.87l-8.644-9.095a.606.606 0 00-.87-.017l-1.183 1.21a.606.606 0 00-.018.877l8.637 9.024a.606.606 0 00.868.023l-.014-.016zm1.423-9.677l-1.135-1.208a.606.606 0 00-.87-.017l-9.095 8.645a.606.606 0 00-.017.87l1.21 1.182a.606.606 0 00.876.019l9.024-8.637a.606.606 0 00.023-.869l-.016.015z" fill="#F30000" fill-rule="nonzero" opacity=".7"/></g></svg>
